solid OpenSCAD_Model
  facet normal -0.809016 -0.587786 0
    outer loop
      vertex 58.5317 -10.5 0
      vertex 57.668 -9.31118 3
      vertex 57.668 -9.31118 0
    endloop
  endfacet
  facet normal -0.809016 -0.587786 0
    outer loop
      vertex 57.668 -9.31118 3
      vertex 58.5317 -10.5 0
      vertex 58.5317 -10.5 3
    endloop
  endfacet
  facet normal 1 -0 0
    outer loop
      vertex 56.2705 -11.2347 3
      vertex 56.2705 -9.76527 0
      vertex 56.2705 -9.76527 3
    endloop
  endfacet
  facet normal 1 0 0
    outer loop
      vertex 56.2705 -9.76527 0
      vertex 56.2705 -11.2347 3
      vertex 56.2705 -11.2347 0
    endloop
  endfacet
  facet normal 0.309017 -0.951056 0
    outer loop
      vertex 56.2705 -9.76527 0
      vertex 57.668 -9.31118 3
      vertex 56.2705 -9.76527 3
    endloop
  endfacet
  facet normal 0.309017 -0.951056 0
    outer loop
      vertex 57.668 -9.31118 3
      vertex 56.2705 -9.76527 0
      vertex 57.668 -9.31118 0
    endloop
  endfacet
  facet normal -0 0 1
    outer loop
      vertex 57.668 9.31118 3
      vertex 58.5317 -10.5 3
      vertex 58.5317 10.5 3
    endloop
  endfacet
  facet normal 0 0 1
    outer loop
      vertex 57.668 9.31118 3
      vertex 57.668 -9.31118 3
      vertex 58.5317 -10.5 3
    endloop
  endfacet
  facet normal 0 0 1
    outer loop
      vertex 50.2261 1.89224 3
      vertex 57.668 9.31118 3
      vertex 56.2705 9.76527 3
    endloop
  endfacet
  facet normal 0 0 1
    outer loop
      vertex 57.668 9.31118 3
      vertex 50.7817 0 3
      vertex 57.668 -9.31118 3
    endloop
  endfacet
  facet normal 0 0 1
    outer loop
      vertex 62.7817 15 3
      vertex 58.5317 10.5 3
      vertex 62.7817 -15 3
    endloop
  endfacet
  facet normal 0 0 1
    outer loop
      vertex 62.7817 15 3
      vertex 57.668 11.6888 3
      vertex 58.5317 10.5 3
    endloop
  endfacet
  facet normal 0 0 1
    outer loop
      vertex 62.7817 15 3
      vertex 56.2705 11.2347 3
      vertex 57.668 11.6888 3
    endloop
  endfacet
  facet normal 0 0 1
    outer loop
      vertex 48.7357 3.18371 3
      vertex 56.2705 9.76527 3
      vertex 56.2705 11.2347 3
    endloop
  endfacet
  facet normal -0 0 1
    outer loop
      vertex 50.2261 -1.89224 3
      vertex 57.668 -9.31118 3
      vertex 50.7817 0 3
    endloop
  endfacet
  facet normal 0 0 1
    outer loop
      vertex 57.668 -9.31118 3
      vertex 50.2261 -1.89224 3
      vertex 56.2705 -9.76527 3
    endloop
  endfacet
  facet normal -0 0 1
    outer loop
      vertex 48.7357 -3.18371 3
      vertex 56.2705 -9.76527 3
      vertex 50.2261 -1.89224 3
    endloop
  endfacet
  facet normal 0 0 1
    outer loop
      vertex 56.2705 -9.76527 3
      vertex 48.7357 -3.18371 3
      vertex 56.2705 -11.2347 3
    endloop
  endfacet
  facet normal 0 0 1
    outer loop
      vertex 57.668 9.31118 3
      vertex 50.2261 1.89224 3
      vertex 50.7817 0 3
    endloop
  endfacet
  facet normal 0 0 1
    outer loop
      vertex 56.2705 9.76527 3
      vertex 48.7357 3.18371 3
      vertex 50.2261 1.89224 3
    endloop
  endfacet
  facet normal 0 0 1
    outer loop
      vertex 56.2705 11.2347 3
      vertex 46.7836 3.46437 3
      vertex 48.7357 3.18371 3
    endloop
  endfacet
  facet normal -0 0 1
    outer loop
      vertex 26.5165 8.83883 3
      vertex 46.7836 3.46437 3
      vertex 56.2705 11.2347 3
    endloop
  endfacet
  facet normal 0 0 1
    outer loop
      vertex 43.9235 0.986063 3
      vertex 26.5165 8.83883 3
      vertex 43.9235 -0.986063 3
    endloop
  endfacet
  facet normal 0 0 1
    outer loop
      vertex 44.9897 2.64512 3
      vertex 26.5165 8.83883 3
      vertex 43.9235 0.986063 3
    endloop
  endfacet
  facet normal 0 0 1
    outer loop
      vertex 46.7836 3.46437 3
      vertex 26.5165 8.83883 3
      vertex 44.9897 2.64512 3
    endloop
  endfacet
  facet normal 0 0 1
    outer loop
      vertex 11.75 57.2817 3
      vertex 56.2705 11.2347 3
      vertex 62.7817 15 3
    endloop
  endfacet
  facet normal -0 0 1
    outer loop
      vertex 11.75 57.2817 3
      vertex 62.7817 15 3
      vertex 15 62.7817 3
    endloop
  endfacet
  facet normal 0 0 1
    outer loop
      vertex 56.2705 11.2347 3
      vertex 11.75 57.2817 3
      vertex 26.5165 8.83883 3
    endloop
  endfacet
  facet normal 0 0 1
    outer loop
      vertex 8.83883 26.5165 3
      vertex 11.75 57.2817 3
      vertex 10.8863 56.0929 3
    endloop
  endfacet
  facet normal 0 0 1
    outer loop
      vertex 2.94439 49.174 3
      vertex 10.8863 56.0929 3
      vertex 9.48873 56.547 3
    endloop
  endfacet
  facet normal 0 0 1
    outer loop
      vertex 11.75 57.2817 3
      vertex 8.83883 26.5165 3
      vertex 26.5165 8.83883 3
    endloop
  endfacet
  facet normal -0 0 1
    outer loop
      vertex 58.5317 -10.5 3
      vertex 62.7817 -15 3
      vertex 58.5317 10.5 3
    endloop
  endfacet
  facet normal -0 0 1
    outer loop
      vertex 57.668 -11.6888 3
      vertex 62.7817 -15 3
      vertex 58.5317 -10.5 3
    endloop
  endfacet
  facet normal 0 0 1
    outer loop
      vertex 53.033 -24.7487 3
      vertex 57.668 -11.6888 3
      vertex 56.2705 -11.2347 3
    endloop
  endfacet
  facet normal 0 0 1
    outer loop
      vertex 57.668 -11.6888 3
      vertex 53.033 -24.7487 3
      vertex 62.7817 -15 3
    endloop
  endfacet
  facet normal 0 0 1
    outer loop
      vertex 56.2705 -11.2347 3
      vertex 51.7588 -23.4746 3
      vertex 53.033 -24.7487 3
    endloop
  endfacet
  facet normal -0 0 1
    outer loop
      vertex 46.7836 -3.46437 3
      vertex 56.2705 -11.2347 3
      vertex 48.7357 -3.18371 3
    endloop
  endfacet
  facet normal 0 0 1
    outer loop
      vertex 56.2705 -11.2347 3
      vertex 46.7836 -3.46437 3
      vertex 51.7588 -23.4746 3
    endloop
  endfacet
  facet normal 0 0 1
    outer loop
      vertex 44.9897 -2.64512 3
      vertex 51.7588 -23.4746 3
      vertex 46.7836 -3.46437 3
    endloop
  endfacet
  facet normal 0 0 1
    outer loop
      vertex 22.981 5.3033 3
      vertex 44.9897 -2.64512 3
      vertex 43.9235 -0.986063 3
    endloop
  endfacet
  facet normal -0 0 1
    outer loop
      vertex 22.981 5.3033 3
      vertex 43.9235 -0.986063 3
      vertex 26.5165 8.83883 3
    endloop
  endfacet
  facet normal 0 0 1
    outer loop
      vertex 44.9897 -2.64512 3
      vertex 22.981 5.3033 3
      vertex 51.7588 -23.4746 3
    endloop
  endfacet
  facet normal 0 0 1
    outer loop
      vertex 51.7588 -23.4746 3
      vertex 22.981 5.3033 3
      vertex 23.4746 -51.7588 3
    endloop
  endfacet
  facet normal 0 0 1
    outer loop
      vertex 23.4746 -51.7588 3
      vertex 15 -62.7817 3
      vertex 24.7487 -53.033 3
    endloop
  endfacet
  facet normal -0 0 1
    outer loop
      vertex 2.94439 -45.3895 3
      vertex 23.4746 -51.7588 3
      vertex 22.981 5.3033 3
    endloop
  endfacet
  facet normal 0 0 1
    outer loop
      vertex 23.4746 -51.7588 3
      vertex 11.75 -57.2817 3
      vertex 15 -62.7817 3
    endloop
  endfacet
  facet normal 0 0 1
    outer loop
      vertex 23.4746 -51.7588 3
      vertex 10.8863 -56.0929 3
      vertex 11.75 -57.2817 3
    endloop
  endfacet
  facet normal -0 -0 1
    outer loop
      vertex 3.5 -47.2817 3
      vertex 23.4746 -51.7588 3
      vertex 2.94439 -45.3895 3
    endloop
  endfacet
  facet normal 0 0 1
    outer loop
      vertex 23.4746 -51.7588 3
      vertex 3.5 -47.2817 3
      vertex 10.8863 -56.0929 3
    endloop
  endfacet
  facet normal 0 0 1
    outer loop
      vertex 2.94439 -45.3895 3
      vertex 22.981 5.3033 3
      vertex 5.3033 22.981 3
    endloop
  endfacet
  facet normal 0 0 1
    outer loop
      vertex -56.8955 -9.31118 3
      vertex -50.64 -0.986063 3
      vertex -56.8955 9.31118 3
    endloop
  endfacet
  facet normal 0 0 1
    outer loop
      vertex -50.64 -0.986063 3
      vertex -56.8955 -9.31118 3
      vertex -56.0317 -10.5 3
    endloop
  endfacet
  facet normal 0 0 1
    outer loop
      vertex -58.293 9.76527 3
      vertex -56.8955 -9.31118 3
      vertex -56.8955 9.31118 3
    endloop
  endfacet
  facet normal 0 0 1
    outer loop
      vertex -56.8955 -9.31118 3
      vertex -58.293 9.76527 3
      vertex -58.293 -9.76527 3
    endloop
  endfacet
  facet normal 0 0 1
    outer loop
      vertex -53.033 24.7487 3
      vertex -56.8955 11.6888 3
      vertex -56.0317 10.5 3
    endloop
  endfacet
  facet normal -0 0 1
    outer loop
      vertex -62.7817 15 3
      vertex -56.8955 11.6888 3
      vertex -53.033 24.7487 3
    endloop
  endfacet
  facet normal 0 0 1
    outer loop
      vertex -62.7817 15 3
      vertex -58.293 9.76527 3
      vertex -58.293 11.2347 3
    endloop
  endfacet
  facet normal 0 0 1
    outer loop
      vertex -58.293 9.76527 3
      vertex -62.7817 15 3
      vertex -58.293 -9.76527 3
    endloop
  endfacet
  facet normal 0 0 1
    outer loop
      vertex -62.7817 -15 3
      vertex -58.293 -9.76527 3
      vertex -62.7817 15 3
    endloop
  endfacet
  facet normal 0 0 1
    outer loop
      vertex -56.8955 11.6888 3
      vertex -62.7817 15 3
      vertex -58.293 11.2347 3
    endloop
  endfacet
  facet normal 0 0 1
    outer loop
      vertex -2.29201 -49.9269 3
      vertex -10.1137 -56.0929 3
      vertex -9.25 -57.2817 3
    endloop
  endfacet
  facet normal 0 0 1
    outer loop
      vertex -3.35822 -46.2957 3
      vertex -11.5113 -56.547 3
      vertex -10.1137 -56.0929 3
    endloop
  endfacet
  facet normal 0 0 1
    outer loop
      vertex -11.5113 -56.547 3
      vertex -15 -62.7817 3
      vertex -11.5113 -58.0165 3
    endloop
  endfacet
  facet normal 0 0 1
    outer loop
      vertex -56.8955 -11.6888 3
      vertex -11.5113 -56.547 3
      vertex -8.83883 -26.5165 3
    endloop
  endfacet
  facet normal -0 0 1
    outer loop
      vertex -56.8955 -11.6888 3
      vertex -8.83883 -26.5165 3
      vertex -26.5165 -8.83883 3
    endloop
  endfacet
  facet normal -0 0 1
    outer loop
      vertex -44.3374 -1.89224 3
      vertex -26.5165 -8.83883 3
      vertex -43.7817 0 3
    endloop
  endfacet
  facet normal -0 0 1
    outer loop
      vertex -45.8278 -3.18371 3
      vertex -26.5165 -8.83883 3
      vertex -44.3374 -1.89224 3
    endloop
  endfacet
  facet normal 0 0 1
    outer loop
      vertex -56.0317 -10.5 3
      vertex -26.5165 -8.83883 3
      vertex -45.8278 -3.18371 3
    endloop
  endfacet
  facet normal 0 0 1
    outer loop
      vertex -56.0317 -10.5 3
      vertex -45.8278 -3.18371 3
      vertex -47.7798 -3.46437 3
    endloop
  endfacet
  facet normal 0 0 1
    outer loop
      vertex -56.0317 -10.5 3
      vertex -47.7798 -3.46437 3
      vertex -49.5738 -2.64512 3
    endloop
  endfacet
  facet normal 0 0 1
    outer loop
      vertex -56.0317 -10.5 3
      vertex -49.5738 -2.64512 3
      vertex -50.64 -0.986063 3
    endloop
  endfacet
  facet normal 0 0 1
    outer loop
      vertex -49.5738 2.64512 3
      vertex -56.8955 9.31118 3
      vertex -50.64 0.986063 3
    endloop
  endfacet
  facet normal 0 0 1
    outer loop
      vertex -50.64 0.986063 3
      vertex -56.8955 9.31118 3
      vertex -50.64 -0.986063 3
    endloop
  endfacet
  facet normal 0 0 1
    outer loop
      vertex -26.5165 -8.83883 3
      vertex -56.0317 -10.5 3
      vertex -56.8955 -11.6888 3
    endloop
  endfacet
  facet normal 0 0 1
    outer loop
      vertex -11.5113 -56.547 3
      vertex -56.8955 -11.6888 3
      vertex -15 -62.7817 3
    endloop
  endfacet
  facet normal 0 0 1
    outer loop
      vertex -62.7817 -15 3
      vertex -56.8955 -11.6888 3
      vertex -58.293 -11.2347 3
    endloop
  endfacet
  facet normal 0 0 1
    outer loop
      vertex -56.8955 -11.6888 3
      vertex -62.7817 -15 3
      vertex -15 -62.7817 3
    endloop
  endfacet
  facet normal 0 0 1
    outer loop
      vertex -58.293 -9.76527 3
      vertex -62.7817 -15 3
      vertex -58.293 -11.2347 3
    endloop
  endfacet
  facet normal -0 0 1
    outer loop
      vertex -0.498101 43.8174 3
      vertex 8.83883 26.5165 3
      vertex 1.45395 44.098 3
    endloop
  endfacet
  facet normal -0 0 1
    outer loop
      vertex 2.94439 -49.174 3
      vertex 10.8863 -56.0929 3
      vertex 3.5 -47.2817 3
    endloop
  endfacet
  facet normal 0 0 1
    outer loop
      vertex 8.83883 26.5165 3
      vertex -0.498101 43.8174 3
      vertex 5.3033 22.981 3
    endloop
  endfacet
  facet normal 0 0 1
    outer loop
      vertex 5.3033 22.981 3
      vertex -5.3033 -22.981 3
      vertex 2.94439 -45.3895 3
    endloop
  endfacet
  facet normal 0 0 1
    outer loop
      vertex -2.29201 44.6366 3
      vertex 5.3033 22.981 3
      vertex -0.498101 43.8174 3
    endloop
  endfacet
  facet normal 0 0 1
    outer loop
      vertex 2.94439 -45.3895 3
      vertex -5.3033 -22.981 3
      vertex 1.45395 -44.098 3
    endloop
  endfacet
  facet normal 0 0 1
    outer loop
      vertex -24.7487 53.033 3
      vertex 5.3033 22.981 3
      vertex -2.29201 44.6366 3
    endloop
  endfacet
  facet normal 0 0 1
    outer loop
      vertex 1.45395 -44.098 3
      vertex -5.3033 -22.981 3
      vertex -0.498101 -43.8174 3
    endloop
  endfacet
  facet normal 0 0 1
    outer loop
      vertex -24.7487 53.033 3
      vertex -2.29201 44.6366 3
      vertex -3.35822 46.2957 3
    endloop
  endfacet
  facet normal -0 0 1
    outer loop
      vertex -8.83883 -26.5165 3
      vertex -0.498101 -43.8174 3
      vertex -5.3033 -22.981 3
    endloop
  endfacet
  facet normal 0 0 1
    outer loop
      vertex -11.5113 56.547 3
      vertex -3.35822 46.2957 3
      vertex -10.1137 56.0929 3
    endloop
  endfacet
  facet normal 0 0 1
    outer loop
      vertex -3.35822 46.2957 3
      vertex -11.5113 56.547 3
      vertex -24.7487 53.033 3
    endloop
  endfacet
  facet normal 0 0 1
    outer loop
      vertex -24.7487 53.033 3
      vertex -11.5113 56.547 3
      vertex -15 62.7817 3
    endloop
  endfacet
  facet normal 0 0 1
    outer loop
      vertex 5.3033 22.981 3
      vertex -22.981 -5.3033 3
      vertex -5.3033 -22.981 3
    endloop
  endfacet
  facet normal 0 0 1
    outer loop
      vertex 5.3033 22.981 3
      vertex -24.7487 53.033 3
      vertex -22.981 -5.3033 3
    endloop
  endfacet
  facet normal -0 0 1
    outer loop
      vertex -53.033 24.7487 3
      vertex -22.981 -5.3033 3
      vertex -24.7487 53.033 3
    endloop
  endfacet
  facet normal -0 -0 1
    outer loop
      vertex -43.7817 0 3
      vertex -22.981 -5.3033 3
      vertex -44.3374 1.89224 3
    endloop
  endfacet
  facet normal 0 0 1
    outer loop
      vertex -22.981 -5.3033 3
      vertex -43.7817 0 3
      vertex -26.5165 -8.83883 3
    endloop
  endfacet
  facet normal 0 0 1
    outer loop
      vertex -22.981 -5.3033 3
      vertex -53.033 24.7487 3
      vertex -44.3374 1.89224 3
    endloop
  endfacet
  facet normal 0 0 1
    outer loop
      vertex -44.3374 1.89224 3
      vertex -53.033 24.7487 3
      vertex -45.8278 3.18371 3
    endloop
  endfacet
  facet normal -0 0 1
    outer loop
      vertex -56.0317 10.5 3
      vertex -45.8278 3.18371 3
      vertex -53.033 24.7487 3
    endloop
  endfacet
  facet normal 0 0 1
    outer loop
      vertex -53.033 24.7487 3
      vertex -24.7487 53.033 3
      vertex -50.2046 78.4889 3
    endloop
  endfacet
  facet normal 0 0 1
    outer loop
      vertex -45.8278 3.18371 3
      vertex -56.0317 10.5 3
      vertex -47.7798 3.46437 3
    endloop
  endfacet
  facet normal -0 0 1
    outer loop
      vertex -56.8955 9.31118 3
      vertex -49.5738 2.64512 3
      vertex -56.0317 10.5 3
    endloop
  endfacet
  facet normal 0 0 1
    outer loop
      vertex -47.7798 3.46437 3
      vertex -56.0317 10.5 3
      vertex -49.5738 2.64512 3
    endloop
  endfacet
  facet normal 0 -0 1
    outer loop
      vertex -53.033 24.7487 3
      vertex -50.2046 78.4889 3
      vertex -78.4889 50.2046 3
    endloop
  endfacet
  facet normal 0 0 1
    outer loop
      vertex 15 62.7817 3
      vertex 10.8863 58.4706 3
      vertex 11.75 57.2817 3
    endloop
  endfacet
  facet normal 0 0 1
    outer loop
      vertex 15 62.7817 3
      vertex 9.48873 58.0165 3
      vertex 10.8863 58.4706 3
    endloop
  endfacet
  facet normal 0 0 1
    outer loop
      vertex 1.45395 50.4655 3
      vertex 9.48873 56.547 3
      vertex 9.48873 58.0165 3
    endloop
  endfacet
  facet normal 0 0 1
    outer loop
      vertex 2.94439 45.3895 3
      vertex 10.8863 56.0929 3
      vertex 3.5 47.2817 3
    endloop
  endfacet
  facet normal 0 0 1
    outer loop
      vertex 10.8863 56.0929 3
      vertex 2.94439 45.3895 3
      vertex 8.83883 26.5165 3
    endloop
  endfacet
  facet normal 0 0 1
    outer loop
      vertex 10.8863 56.0929 3
      vertex 2.94439 49.174 3
      vertex 3.5 47.2817 3
    endloop
  endfacet
  facet normal 0 0 1
    outer loop
      vertex 9.48873 56.547 3
      vertex 1.45395 50.4655 3
      vertex 2.94439 49.174 3
    endloop
  endfacet
  facet normal 0 0 1
    outer loop
      vertex 9.48873 58.0165 3
      vertex -0.498101 50.7461 3
      vertex 1.45395 50.4655 3
    endloop
  endfacet
  facet normal -0 0 1
    outer loop
      vertex -10.1137 58.4706 3
      vertex 9.48873 58.0165 3
      vertex 15 62.7817 3
    endloop
  endfacet
  facet normal 0 0 1
    outer loop
      vertex 9.48873 58.0165 3
      vertex -9.25 57.2817 3
      vertex -0.498101 50.7461 3
    endloop
  endfacet
  facet normal 0 0 1
    outer loop
      vertex -2.29201 49.9269 3
      vertex -10.1137 56.0929 3
      vertex -3.35822 48.2678 3
    endloop
  endfacet
  facet normal 0 0 1
    outer loop
      vertex -0.498101 -43.8174 3
      vertex -8.83883 -26.5165 3
      vertex -2.29201 -44.6366 3
    endloop
  endfacet
  facet normal 0 0 1
    outer loop
      vertex -2.29201 -44.6366 3
      vertex -8.83883 -26.5165 3
      vertex -3.35822 -46.2957 3
    endloop
  endfacet
  facet normal 0 0 1
    outer loop
      vertex -3.35822 48.2678 3
      vertex -10.1137 56.0929 3
      vertex -3.35822 46.2957 3
    endloop
  endfacet
  facet normal -0 0 1
    outer loop
      vertex -10.1137 56.0929 3
      vertex -2.29201 49.9269 3
      vertex -9.25 57.2817 3
    endloop
  endfacet
  facet normal 0 0 1
    outer loop
      vertex -0.498101 50.7461 3
      vertex -9.25 57.2817 3
      vertex -2.29201 49.9269 3
    endloop
  endfacet
  facet normal 0 0 1
    outer loop
      vertex 9.48873 58.0165 3
      vertex -10.1137 58.4706 3
      vertex -9.25 57.2817 3
    endloop
  endfacet
  facet normal 0 0 1
    outer loop
      vertex -11.5113 58.0165 3
      vertex -15 62.7817 3
      vertex -11.5113 56.547 3
    endloop
  endfacet
  facet normal 0 0 1
    outer loop
      vertex -10.1137 58.4706 3
      vertex -15 62.7817 3
      vertex -11.5113 58.0165 3
    endloop
  endfacet
  facet normal -0 0 1
    outer loop
      vertex -15 62.7817 3
      vertex -10.1137 58.4706 3
      vertex 15 62.7817 3
    endloop
  endfacet
  facet normal -0 0 1
    outer loop
      vertex 10.8863 -58.4706 3
      vertex 15 -62.7817 3
      vertex 11.75 -57.2817 3
    endloop
  endfacet
  facet normal 0 0 1
    outer loop
      vertex 9.48873 -58.0165 3
      vertex 15 -62.7817 3
      vertex 10.8863 -58.4706 3
    endloop
  endfacet
  facet normal -0 0 1
    outer loop
      vertex 1.45395 44.098 3
      vertex 8.83883 26.5165 3
      vertex 2.94439 45.3895 3
    endloop
  endfacet
  facet normal 0 0 1
    outer loop
      vertex 10.8863 -56.0929 3
      vertex 2.94439 -49.174 3
      vertex 9.48873 -56.547 3
    endloop
  endfacet
  facet normal -0 0 1
    outer loop
      vertex 1.45395 -50.4655 3
      vertex 9.48873 -56.547 3
      vertex 2.94439 -49.174 3
    endloop
  endfacet
  facet normal 0 0 1
    outer loop
      vertex 9.48873 -56.547 3
      vertex 1.45395 -50.4655 3
      vertex 9.48873 -58.0165 3
    endloop
  endfacet
  facet normal -0 0 1
    outer loop
      vertex -0.498101 -50.7461 3
      vertex 9.48873 -58.0165 3
      vertex 1.45395 -50.4655 3
    endloop
  endfacet
  facet normal -0 0 1
    outer loop
      vertex -9.25 -57.2817 3
      vertex 9.48873 -58.0165 3
      vertex -0.498101 -50.7461 3
    endloop
  endfacet
  facet normal 0 0 1
    outer loop
      vertex -9.25 -57.2817 3
      vertex -0.498101 -50.7461 3
      vertex -2.29201 -49.9269 3
    endloop
  endfacet
  facet normal 0 0 1
    outer loop
      vertex -11.5113 -56.547 3
      vertex -3.35822 -46.2957 3
      vertex -8.83883 -26.5165 3
    endloop
  endfacet
  facet normal 0 0 1
    outer loop
      vertex -10.1137 -56.0929 3
      vertex -3.35822 -48.2678 3
      vertex -3.35822 -46.2957 3
    endloop
  endfacet
  facet normal 0 0 1
    outer loop
      vertex -10.1137 -56.0929 3
      vertex -2.29201 -49.9269 3
      vertex -3.35822 -48.2678 3
    endloop
  endfacet
  facet normal 0 0 1
    outer loop
      vertex -10.1137 -58.4706 3
      vertex 9.48873 -58.0165 3
      vertex -9.25 -57.2817 3
    endloop
  endfacet
  facet normal 0 0 1
    outer loop
      vertex 9.48873 -58.0165 3
      vertex -10.1137 -58.4706 3
      vertex 15 -62.7817 3
    endloop
  endfacet
  facet normal 0 0 1
    outer loop
      vertex -10.1137 -58.4706 3
      vertex -15 -62.7817 3
      vertex 15 -62.7817 3
    endloop
  endfacet
  facet normal 0 0 1
    outer loop
      vertex -15 -62.7817 3
      vertex -10.1137 -58.4706 3
      vertex -11.5113 -58.0165 3
    endloop
  endfacet
  facet normal 0 0 -1
    outer loop
      vertex -56.8955 9.31118 0
      vertex -50.64 0.986063 0
      vertex -56.8955 -9.31118 0
    endloop
  endfacet
  facet normal 0 0 -1
    outer loop
      vertex -50.64 0.986063 0
      vertex -56.8955 9.31118 0
      vertex -56.0317 10.5 0
    endloop
  endfacet
  facet normal 0 0 -1
    outer loop
      vertex -58.293 -9.76527 0
      vertex -56.8955 9.31118 0
      vertex -56.8955 -9.31118 0
    endloop
  endfacet
  facet normal -0 0 -1
    outer loop
      vertex -56.8955 9.31118 0
      vertex -58.293 -9.76527 0
      vertex -58.293 9.76527 0
    endloop
  endfacet
  facet normal 0 0 -1
    outer loop
      vertex -45.8278 3.18371 0
      vertex -56.0317 10.5 0
      vertex -53.033 24.7487 0
    endloop
  endfacet
  facet normal 0 0 -1
    outer loop
      vertex -56.8955 11.6888 0
      vertex -53.033 24.7487 0
      vertex -56.0317 10.5 0
    endloop
  endfacet
  facet normal 0 0 -1
    outer loop
      vertex -62.7817 15 0
      vertex -56.8955 11.6888 0
      vertex -58.293 11.2347 0
    endloop
  endfacet
  facet normal 0 0 -1
    outer loop
      vertex -56.8955 11.6888 0
      vertex -62.7817 15 0
      vertex -53.033 24.7487 0
    endloop
  endfacet
  facet normal 0 0 -1
    outer loop
      vertex -58.293 9.76527 0
      vertex -62.7817 15 0
      vertex -58.293 11.2347 0
    endloop
  endfacet
  facet normal 0 0 -1
    outer loop
      vertex -2.29201 49.9269 0
      vertex -10.1137 56.0929 0
      vertex -9.25 57.2817 0
    endloop
  endfacet
  facet normal 0 0 -1
    outer loop
      vertex -2.29201 44.6366 0
      vertex -24.7487 53.033 0
      vertex -3.35822 46.2957 0
    endloop
  endfacet
  facet normal 0 0 -1
    outer loop
      vertex -11.5113 56.547 0
      vertex -15 62.7817 0
      vertex -11.5113 58.0165 0
    endloop
  endfacet
  facet normal 0 -0 -1
    outer loop
      vertex -11.5113 56.547 0
      vertex -3.35822 46.2957 0
      vertex -24.7487 53.033 0
    endloop
  endfacet
  facet normal 0 0 -1
    outer loop
      vertex -3.35822 46.2957 0
      vertex -11.5113 56.547 0
      vertex -10.1137 56.0929 0
    endloop
  endfacet
  facet normal -0 0 -1
    outer loop
      vertex -11.5113 56.547 0
      vertex -24.7487 53.033 0
      vertex -15 62.7817 0
    endloop
  endfacet
  facet normal 0 0 -1
    outer loop
      vertex -43.7817 0 0
      vertex -22.981 -5.3033 0
      vertex -26.5165 -8.83883 0
    endloop
  endfacet
  facet normal 0 0 -1
    outer loop
      vertex -22.981 -5.3033 0
      vertex -43.7817 0 0
      vertex -44.3374 1.89224 0
    endloop
  endfacet
  facet normal 0 0 -1
    outer loop
      vertex -53.033 24.7487 0
      vertex -22.981 -5.3033 0
      vertex -44.3374 1.89224 0
    endloop
  endfacet
  facet normal 0 0 -1
    outer loop
      vertex -53.033 24.7487 0
      vertex -44.3374 1.89224 0
      vertex -45.8278 3.18371 0
    endloop
  endfacet
  facet normal 0 0 -1
    outer loop
      vertex -56.0317 10.5 0
      vertex -45.8278 3.18371 0
      vertex -47.7798 3.46437 0
    endloop
  endfacet
  facet normal 0 0 -1
    outer loop
      vertex -56.0317 10.5 0
      vertex -47.7798 3.46437 0
      vertex -49.5738 2.64512 0
    endloop
  endfacet
  facet normal 0 0 -1
    outer loop
      vertex -22.981 -5.3033 0
      vertex -53.033 24.7487 0
      vertex -24.7487 53.033 0
    endloop
  endfacet
  facet normal 0 0 -1
    outer loop
      vertex -56.0317 10.5 0
      vertex -49.5738 2.64512 0
      vertex -50.64 0.986063 0
    endloop
  endfacet
  facet normal -0 0 -1
    outer loop
      vertex -24.7487 53.033 0
      vertex -53.033 24.7487 0
      vertex -50.2046 78.4889 0
    endloop
  endfacet
  facet normal 0 0 -1
    outer loop
      vertex -50.2046 78.4889 0
      vertex -53.033 24.7487 0
      vertex -78.4889 50.2046 0
    endloop
  endfacet
  facet normal -0 0 -1
    outer loop
      vertex 22.981 5.3033 0
      vertex -5.3033 -22.981 0
      vertex 5.3033 22.981 0
    endloop
  endfacet
  facet normal 0 0 -1
    outer loop
      vertex 5.3033 22.981 0
      vertex 2.94439 45.3895 0
      vertex 3.5 47.2817 0
    endloop
  endfacet
  facet normal 0 0 -1
    outer loop
      vertex -5.3033 -22.981 0
      vertex 2.94439 -45.3895 0
      vertex 1.45395 -44.098 0
    endloop
  endfacet
  facet normal 0 0 -1
    outer loop
      vertex -22.981 -5.3033 0
      vertex 5.3033 22.981 0
      vertex -5.3033 -22.981 0
    endloop
  endfacet
  facet normal 0 0 -1
    outer loop
      vertex -5.3033 -22.981 0
      vertex 1.45395 -44.098 0
      vertex -0.498101 -43.8174 0
    endloop
  endfacet
  facet normal 0 0 -1
    outer loop
      vertex 5.3033 22.981 0
      vertex 1.45395 44.098 0
      vertex 2.94439 45.3895 0
    endloop
  endfacet
  facet normal 0 0 -1
    outer loop
      vertex -8.83883 -26.5165 0
      vertex -0.498101 -43.8174 0
      vertex -2.29201 -44.6366 0
    endloop
  endfacet
  facet normal 0 0 -1
    outer loop
      vertex 5.3033 22.981 0
      vertex -0.498101 43.8174 0
      vertex 1.45395 44.098 0
    endloop
  endfacet
  facet normal 0 0 -1
    outer loop
      vertex -8.83883 -26.5165 0
      vertex -2.29201 -44.6366 0
      vertex -3.35822 -46.2957 0
    endloop
  endfacet
  facet normal 0 0 -1
    outer loop
      vertex 5.3033 22.981 0
      vertex -2.29201 44.6366 0
      vertex -0.498101 43.8174 0
    endloop
  endfacet
  facet normal 0 0 -1
    outer loop
      vertex -11.5113 -56.547 0
      vertex -3.35822 -46.2957 0
      vertex -10.1137 -56.0929 0
    endloop
  endfacet
  facet normal -0 0 -1
    outer loop
      vertex -3.35822 -46.2957 0
      vertex -11.5113 -56.547 0
      vertex -8.83883 -26.5165 0
    endloop
  endfacet
  facet normal 0 0 -1
    outer loop
      vertex -56.8955 -11.6888 0
      vertex -11.5113 -56.547 0
      vertex -15 -62.7817 0
    endloop
  endfacet
  facet normal 0 0 -1
    outer loop
      vertex -11.5113 -56.547 0
      vertex -56.8955 -11.6888 0
      vertex -8.83883 -26.5165 0
    endloop
  endfacet
  facet normal 0 0 -1
    outer loop
      vertex -8.83883 -26.5165 0
      vertex -56.8955 -11.6888 0
      vertex -26.5165 -8.83883 0
    endloop
  endfacet
  facet normal 0 0 -1
    outer loop
      vertex -26.5165 -8.83883 0
      vertex -44.3374 -1.89224 0
      vertex -43.7817 0 0
    endloop
  endfacet
  facet normal 0 0 -1
    outer loop
      vertex -26.5165 -8.83883 0
      vertex -45.8278 -3.18371 0
      vertex -44.3374 -1.89224 0
    endloop
  endfacet
  facet normal 0 -0 -1
    outer loop
      vertex -56.0317 -10.5 0
      vertex -26.5165 -8.83883 0
      vertex -56.8955 -11.6888 0
    endloop
  endfacet
  facet normal -0 0 -1
    outer loop
      vertex -26.5165 -8.83883 0
      vertex -56.0317 -10.5 0
      vertex -45.8278 -3.18371 0
    endloop
  endfacet
  facet normal -0 0 -1
    outer loop
      vertex -47.7798 -3.46437 0
      vertex -56.0317 -10.5 0
      vertex -49.5738 -2.64512 0
    endloop
  endfacet
  facet normal -0 0 -1
    outer loop
      vertex -49.5738 -2.64512 0
      vertex -56.8955 -9.31118 0
      vertex -50.64 -0.986063 0
    endloop
  endfacet
  facet normal -0 0 -1
    outer loop
      vertex -50.64 -0.986063 0
      vertex -56.8955 -9.31118 0
      vertex -50.64 0.986063 0
    endloop
  endfacet
  facet normal 0 0 -1
    outer loop
      vertex -56.8955 -9.31118 0
      vertex -49.5738 -2.64512 0
      vertex -56.0317 -10.5 0
    endloop
  endfacet
  facet normal 0 0 -1
    outer loop
      vertex -45.8278 -3.18371 0
      vertex -56.0317 -10.5 0
      vertex -47.7798 -3.46437 0
    endloop
  endfacet
  facet normal 0 0 -1
    outer loop
      vertex -62.7817 -15 0
      vertex -56.8955 -11.6888 0
      vertex -15 -62.7817 0
    endloop
  endfacet
  facet normal 0 0 -1
    outer loop
      vertex -62.7817 -15 0
      vertex -58.293 -9.76527 0
      vertex -58.293 -11.2347 0
    endloop
  endfacet
  facet normal -0 0 -1
    outer loop
      vertex -58.293 -9.76527 0
      vertex -62.7817 -15 0
      vertex -58.293 9.76527 0
    endloop
  endfacet
  facet normal 0 0 -1
    outer loop
      vertex -62.7817 15 0
      vertex -58.293 9.76527 0
      vertex -62.7817 -15 0
    endloop
  endfacet
  facet normal -0 0 -1
    outer loop
      vertex -56.8955 -11.6888 0
      vertex -62.7817 -15 0
      vertex -58.293 -11.2347 0
    endloop
  endfacet
  facet normal 0 0 -1
    outer loop
      vertex 15 -62.7817 0
      vertex 10.8863 -58.4706 0
      vertex 11.75 -57.2817 0
    endloop
  endfacet
  facet normal 0 0 -1
    outer loop
      vertex 15 -62.7817 0
      vertex 9.48873 -58.0165 0
      vertex 10.8863 -58.4706 0
    endloop
  endfacet
  facet normal 0 0 -1
    outer loop
      vertex 1.45395 -50.4655 0
      vertex 9.48873 -56.547 0
      vertex 9.48873 -58.0165 0
    endloop
  endfacet
  facet normal 0 0 -1
    outer loop
      vertex 2.94439 -45.3895 0
      vertex 9.48873 -56.547 0
      vertex 3.5 -47.2817 0
    endloop
  endfacet
  facet normal 0 0 -1
    outer loop
      vertex 9.48873 -56.547 0
      vertex 2.94439 -49.174 0
      vertex 3.5 -47.2817 0
    endloop
  endfacet
  facet normal 0 0 -1
    outer loop
      vertex 9.48873 -56.547 0
      vertex 1.45395 -50.4655 0
      vertex 2.94439 -49.174 0
    endloop
  endfacet
  facet normal 0 0 -1
    outer loop
      vertex 9.48873 -58.0165 0
      vertex -0.498101 -50.7461 0
      vertex 1.45395 -50.4655 0
    endloop
  endfacet
  facet normal 0 0 -1
    outer loop
      vertex -10.1137 -58.4706 0
      vertex 9.48873 -58.0165 0
      vertex 15 -62.7817 0
    endloop
  endfacet
  facet normal 0 0 -1
    outer loop
      vertex 9.48873 -58.0165 0
      vertex -9.25 -57.2817 0
      vertex -0.498101 -50.7461 0
    endloop
  endfacet
  facet normal -0 0 -1
    outer loop
      vertex -2.29201 -49.9269 0
      vertex -10.1137 -56.0929 0
      vertex -3.35822 -48.2678 0
    endloop
  endfacet
  facet normal 0 0 -1
    outer loop
      vertex -24.7487 53.033 0
      vertex 5.3033 22.981 0
      vertex -22.981 -5.3033 0
    endloop
  endfacet
  facet normal 0 0 -1
    outer loop
      vertex 5.3033 22.981 0
      vertex -24.7487 53.033 0
      vertex -2.29201 44.6366 0
    endloop
  endfacet
  facet normal 0 0 -1
    outer loop
      vertex -0.498101 -43.8174 0
      vertex -8.83883 -26.5165 0
      vertex -5.3033 -22.981 0
    endloop
  endfacet
  facet normal -0 0 -1
    outer loop
      vertex -3.35822 -48.2678 0
      vertex -10.1137 -56.0929 0
      vertex -3.35822 -46.2957 0
    endloop
  endfacet
  facet normal 0 0 -1
    outer loop
      vertex -10.1137 -56.0929 0
      vertex -2.29201 -49.9269 0
      vertex -9.25 -57.2817 0
    endloop
  endfacet
  facet normal -0 0 -1
    outer loop
      vertex -0.498101 -50.7461 0
      vertex -9.25 -57.2817 0
      vertex -2.29201 -49.9269 0
    endloop
  endfacet
  facet normal -0 0 -1
    outer loop
      vertex 9.48873 -58.0165 0
      vertex -10.1137 -58.4706 0
      vertex -9.25 -57.2817 0
    endloop
  endfacet
  facet normal -0 0 -1
    outer loop
      vertex -11.5113 -58.0165 0
      vertex -15 -62.7817 0
      vertex -11.5113 -56.547 0
    endloop
  endfacet
  facet normal -0 0 -1
    outer loop
      vertex -10.1137 -58.4706 0
      vertex -15 -62.7817 0
      vertex -11.5113 -58.0165 0
    endloop
  endfacet
  facet normal 0 0 -1
    outer loop
      vertex -15 -62.7817 0
      vertex -10.1137 -58.4706 0
      vertex 15 -62.7817 0
    endloop
  endfacet
  facet normal 0 0 -1
    outer loop
      vertex 57.668 -9.31118 0
      vertex 58.5317 10.5 0
      vertex 58.5317 -10.5 0
    endloop
  endfacet
  facet normal 0 0 -1
    outer loop
      vertex 57.668 -9.31118 0
      vertex 57.668 9.31118 0
      vertex 58.5317 10.5 0
    endloop
  endfacet
  facet normal 0 0 -1
    outer loop
      vertex 50.2261 -1.89224 0
      vertex 57.668 -9.31118 0
      vertex 56.2705 -9.76527 0
    endloop
  endfacet
  facet normal 0 0 -1
    outer loop
      vertex 57.668 -9.31118 0
      vertex 50.7817 0 0
      vertex 57.668 9.31118 0
    endloop
  endfacet
  facet normal 0 0 -1
    outer loop
      vertex 62.7817 -15 0
      vertex 58.5317 -10.5 0
      vertex 62.7817 15 0
    endloop
  endfacet
  facet normal 0 0 -1
    outer loop
      vertex 62.7817 -15 0
      vertex 57.668 -11.6888 0
      vertex 58.5317 -10.5 0
    endloop
  endfacet
  facet normal 0 0 -1
    outer loop
      vertex 62.7817 -15 0
      vertex 56.2705 -11.2347 0
      vertex 57.668 -11.6888 0
    endloop
  endfacet
  facet normal 0 0 -1
    outer loop
      vertex 48.7357 -3.18371 0
      vertex 56.2705 -9.76527 0
      vertex 56.2705 -11.2347 0
    endloop
  endfacet
  facet normal 0 0 -1
    outer loop
      vertex 50.2261 1.89224 0
      vertex 57.668 9.31118 0
      vertex 50.7817 0 0
    endloop
  endfacet
  facet normal -0 0 -1
    outer loop
      vertex 57.668 9.31118 0
      vertex 50.2261 1.89224 0
      vertex 56.2705 9.76527 0
    endloop
  endfacet
  facet normal 0 0 -1
    outer loop
      vertex 57.668 -9.31118 0
      vertex 50.2261 -1.89224 0
      vertex 50.7817 0 0
    endloop
  endfacet
  facet normal 0 0 -1
    outer loop
      vertex 56.2705 -9.76527 0
      vertex 48.7357 -3.18371 0
      vertex 50.2261 -1.89224 0
    endloop
  endfacet
  facet normal 0 0 -1
    outer loop
      vertex 56.2705 -11.2347 0
      vertex 46.7836 -3.46437 0
      vertex 48.7357 -3.18371 0
    endloop
  endfacet
  facet normal 0 0 -1
    outer loop
      vertex 56.2705 -11.2347 0
      vertex 44.9897 -2.64512 0
      vertex 46.7836 -3.46437 0
    endloop
  endfacet
  facet normal 0 0 -1
    outer loop
      vertex 43.9235 -0.986063 0
      vertex 26.5165 8.83883 0
      vertex 43.9235 0.986063 0
    endloop
  endfacet
  facet normal 0 0 -1
    outer loop
      vertex 22.981 5.3033 0
      vertex 43.9235 -0.986063 0
      vertex 44.9897 -2.64512 0
    endloop
  endfacet
  facet normal 0 0 -1
    outer loop
      vertex 2.94439 -45.3895 0
      vertex 56.2705 -11.2347 0
      vertex 10.8863 -56.0929 0
    endloop
  endfacet
  facet normal 0 0 -1
    outer loop
      vertex 43.9235 -0.986063 0
      vertex 22.981 5.3033 0
      vertex 26.5165 8.83883 0
    endloop
  endfacet
  facet normal 0 0 -1
    outer loop
      vertex 11.75 -57.2817 0
      vertex 56.2705 -11.2347 0
      vertex 62.7817 -15 0
    endloop
  endfacet
  facet normal 0 0 -1
    outer loop
      vertex 11.75 -57.2817 0
      vertex 62.7817 -15 0
      vertex 15 -62.7817 0
    endloop
  endfacet
  facet normal 0 0 -1
    outer loop
      vertex 56.2705 -11.2347 0
      vertex 11.75 -57.2817 0
      vertex 10.8863 -56.0929 0
    endloop
  endfacet
  facet normal -0 0 -1
    outer loop
      vertex 56.2705 -11.2347 0
      vertex 2.94439 -45.3895 0
      vertex 44.9897 -2.64512 0
    endloop
  endfacet
  facet normal 0 0 -1
    outer loop
      vertex 2.94439 -45.3895 0
      vertex 10.8863 -56.0929 0
      vertex 9.48873 -56.547 0
    endloop
  endfacet
  facet normal -0 0 -1
    outer loop
      vertex 44.9897 -2.64512 0
      vertex 2.94439 -45.3895 0
      vertex 22.981 5.3033 0
    endloop
  endfacet
  facet normal 0 0 -1
    outer loop
      vertex 58.5317 10.5 0
      vertex 62.7817 15 0
      vertex 58.5317 -10.5 0
    endloop
  endfacet
  facet normal 0 0 -1
    outer loop
      vertex 57.668 11.6888 0
      vertex 62.7817 15 0
      vertex 58.5317 10.5 0
    endloop
  endfacet
  facet normal 0 0 -1
    outer loop
      vertex 56.2705 11.2347 0
      vertex 62.7817 15 0
      vertex 57.668 11.6888 0
    endloop
  endfacet
  facet normal 0 0 -1
    outer loop
      vertex 48.7357 3.18371 0
      vertex 56.2705 9.76527 0
      vertex 50.2261 1.89224 0
    endloop
  endfacet
  facet normal -0 0 -1
    outer loop
      vertex 56.2705 9.76527 0
      vertex 48.7357 3.18371 0
      vertex 56.2705 11.2347 0
    endloop
  endfacet
  facet normal 0 0 -1
    outer loop
      vertex 46.7836 3.46437 0
      vertex 56.2705 11.2347 0
      vertex 48.7357 3.18371 0
    endloop
  endfacet
  facet normal 0 0 -1
    outer loop
      vertex 26.5165 8.83883 0
      vertex 46.7836 3.46437 0
      vertex 44.9897 2.64512 0
    endloop
  endfacet
  facet normal 0 0 -1
    outer loop
      vertex 26.5165 8.83883 0
      vertex 44.9897 2.64512 0
      vertex 43.9235 0.986063 0
    endloop
  endfacet
  facet normal 0 0 -1
    outer loop
      vertex 46.7836 3.46437 0
      vertex 26.5165 8.83883 0
      vertex 56.2705 11.2347 0
    endloop
  endfacet
  facet normal 0 0 -1
    outer loop
      vertex 11.75 57.2817 0
      vertex 56.2705 11.2347 0
      vertex 26.5165 8.83883 0
    endloop
  endfacet
  facet normal 0 0 -1
    outer loop
      vertex 56.2705 11.2347 0
      vertex 11.75 57.2817 0
      vertex 62.7817 15 0
    endloop
  endfacet
  facet normal 0 0 -1
    outer loop
      vertex 62.7817 15 0
      vertex 11.75 57.2817 0
      vertex 15 62.7817 0
    endloop
  endfacet
  facet normal 0 0 -1
    outer loop
      vertex 8.83883 26.5165 0
      vertex 11.75 57.2817 0
      vertex 26.5165 8.83883 0
    endloop
  endfacet
  facet normal 0 0 -1
    outer loop
      vertex 11.75 57.2817 0
      vertex 8.83883 26.5165 0
      vertex 10.8863 56.0929 0
    endloop
  endfacet
  facet normal 0 0 -1
    outer loop
      vertex 2.94439 49.174 0
      vertex 10.8863 56.0929 0
      vertex 3.5 47.2817 0
    endloop
  endfacet
  facet normal 0 0 -1
    outer loop
      vertex 3.5 47.2817 0
      vertex 10.8863 56.0929 0
      vertex 8.83883 26.5165 0
    endloop
  endfacet
  facet normal 0 0 -1
    outer loop
      vertex 10.8863 58.4706 0
      vertex 15 62.7817 0
      vertex 11.75 57.2817 0
    endloop
  endfacet
  facet normal 0 0 -1
    outer loop
      vertex 9.48873 58.0165 0
      vertex 15 62.7817 0
      vertex 10.8863 58.4706 0
    endloop
  endfacet
  facet normal 0 0 -1
    outer loop
      vertex 3.5 47.2817 0
      vertex 8.83883 26.5165 0
      vertex 5.3033 22.981 0
    endloop
  endfacet
  facet normal 0 0 -1
    outer loop
      vertex -5.3033 -22.981 0
      vertex 22.981 5.3033 0
      vertex 2.94439 -45.3895 0
    endloop
  endfacet
  facet normal -0 0 -1
    outer loop
      vertex 10.8863 56.0929 0
      vertex 2.94439 49.174 0
      vertex 9.48873 56.547 0
    endloop
  endfacet
  facet normal 0 0 -1
    outer loop
      vertex 1.45395 50.4655 0
      vertex 9.48873 56.547 0
      vertex 2.94439 49.174 0
    endloop
  endfacet
  facet normal -0 0 -1
    outer loop
      vertex 9.48873 56.547 0
      vertex 1.45395 50.4655 0
      vertex 9.48873 58.0165 0
    endloop
  endfacet
  facet normal 0 0 -1
    outer loop
      vertex -0.498101 50.7461 0
      vertex 9.48873 58.0165 0
      vertex 1.45395 50.4655 0
    endloop
  endfacet
  facet normal 0 0 -1
    outer loop
      vertex -9.25 57.2817 0
      vertex 9.48873 58.0165 0
      vertex -0.498101 50.7461 0
    endloop
  endfacet
  facet normal 0 0 -1
    outer loop
      vertex -9.25 57.2817 0
      vertex -0.498101 50.7461 0
      vertex -2.29201 49.9269 0
    endloop
  endfacet
  facet normal 0 0 -1
    outer loop
      vertex -10.1137 56.0929 0
      vertex -3.35822 48.2678 0
      vertex -3.35822 46.2957 0
    endloop
  endfacet
  facet normal 0 0 -1
    outer loop
      vertex -10.1137 56.0929 0
      vertex -2.29201 49.9269 0
      vertex -3.35822 48.2678 0
    endloop
  endfacet
  facet normal 0 0 -1
    outer loop
      vertex -10.1137 58.4706 0
      vertex 9.48873 58.0165 0
      vertex -9.25 57.2817 0
    endloop
  endfacet
  facet normal 0 0 -1
    outer loop
      vertex 9.48873 58.0165 0
      vertex -10.1137 58.4706 0
      vertex 15 62.7817 0
    endloop
  endfacet
  facet normal 0 0 -1
    outer loop
      vertex -10.1137 58.4706 0
      vertex -15 62.7817 0
      vertex 15 62.7817 0
    endloop
  endfacet
  facet normal 0 0 -1
    outer loop
      vertex -15 62.7817 0
      vertex -10.1137 58.4706 0
      vertex -11.5113 58.0165 0
    endloop
  endfacet
  facet normal -0.809016 0.587787 0
    outer loop
      vertex 57.668 -11.6888 0
      vertex 58.5317 -10.5 3
      vertex 58.5317 -10.5 0
    endloop
  endfacet
  facet normal -0.809016 0.587787 0
    outer loop
      vertex 58.5317 -10.5 3
      vertex 57.668 -11.6888 0
      vertex 57.668 -11.6888 3
    endloop
  endfacet
  facet normal 0.309017 0.951056 -0
    outer loop
      vertex 57.668 -11.6888 0
      vertex 56.2705 -11.2347 3
      vertex 57.668 -11.6888 3
    endloop
  endfacet
  facet normal 0.309017 0.951056 0
    outer loop
      vertex 56.2705 -11.2347 3
      vertex 57.668 -11.6888 0
      vertex 56.2705 -11.2347 0
    endloop
  endfacet
  facet normal -0.809016 -0.587787 0
    outer loop
      vertex 58.5317 10.5 0
      vertex 57.668 11.6888 3
      vertex 57.668 11.6888 0
    endloop
  endfacet
  facet normal -0.809016 -0.587787 0
    outer loop
      vertex 57.668 11.6888 3
      vertex 58.5317 10.5 0
      vertex 58.5317 10.5 3
    endloop
  endfacet
  facet normal 1 -0 0
    outer loop
      vertex 56.2705 9.76527 3
      vertex 56.2705 11.2347 0
      vertex 56.2705 11.2347 3
    endloop
  endfacet
  facet normal 1 0 0
    outer loop
      vertex 56.2705 11.2347 0
      vertex 56.2705 9.76527 3
      vertex 56.2705 9.76527 0
    endloop
  endfacet
  facet normal 0.309017 -0.951056 0
    outer loop
      vertex 56.2705 11.2347 0
      vertex 57.668 11.6888 3
      vertex 56.2705 11.2347 3
    endloop
  endfacet
  facet normal 0.309017 -0.951056 0
    outer loop
      vertex 57.668 11.6888 3
      vertex 56.2705 11.2347 0
      vertex 57.668 11.6888 0
    endloop
  endfacet
  facet normal 0.309017 0.951056 -0
    outer loop
      vertex 57.668 9.31118 0
      vertex 56.2705 9.76527 3
      vertex 57.668 9.31118 3
    endloop
  endfacet
  facet normal 0.309017 0.951056 0
    outer loop
      vertex 56.2705 9.76527 3
      vertex 57.668 9.31118 0
      vertex 56.2705 9.76527 0
    endloop
  endfacet
  facet normal -0.809016 0.587786 0
    outer loop
      vertex 57.668 9.31118 0
      vertex 58.5317 10.5 3
      vertex 58.5317 10.5 0
    endloop
  endfacet
  facet normal -0.809016 0.587786 0
    outer loop
      vertex 58.5317 10.5 3
      vertex 57.668 9.31118 0
      vertex 57.668 9.31118 3
    endloop
  endfacet
  facet normal -0.809017 -0.587785 0
    outer loop
      vertex -56.0317 -10.5 0
      vertex -56.8955 -9.31118 3
      vertex -56.8955 -9.31118 0
    endloop
  endfacet
  facet normal -0.809017 -0.587785 0
    outer loop
      vertex -56.8955 -9.31118 3
      vertex -56.0317 -10.5 0
      vertex -56.0317 -10.5 3
    endloop
  endfacet
  facet normal 1 -0 0
    outer loop
      vertex -58.293 -11.2347 3
      vertex -58.293 -9.76527 0
      vertex -58.293 -9.76527 3
    endloop
  endfacet
  facet normal 1 0 0
    outer loop
      vertex -58.293 -9.76527 0
      vertex -58.293 -11.2347 3
      vertex -58.293 -11.2347 0
    endloop
  endfacet
  facet normal 0.309017 -0.951056 0
    outer loop
      vertex -58.293 -9.76527 0
      vertex -56.8955 -9.31118 3
      vertex -58.293 -9.76527 3
    endloop
  endfacet
  facet normal 0.309017 -0.951056 0
    outer loop
      vertex -56.8955 -9.31118 3
      vertex -58.293 -9.76527 0
      vertex -56.8955 -9.31118 0
    endloop
  endfacet
  facet normal -0.809017 0.587785 0
    outer loop
      vertex -56.8955 -11.6888 0
      vertex -56.0317 -10.5 3
      vertex -56.0317 -10.5 0
    endloop
  endfacet
  facet normal -0.809017 0.587785 0
    outer loop
      vertex -56.0317 -10.5 3
      vertex -56.8955 -11.6888 0
      vertex -56.8955 -11.6888 3
    endloop
  endfacet
  facet normal 0.309017 0.951056 -0
    outer loop
      vertex -56.8955 -11.6888 0
      vertex -58.293 -11.2347 3
      vertex -56.8955 -11.6888 3
    endloop
  endfacet
  facet normal 0.309017 0.951056 0
    outer loop
      vertex -58.293 -11.2347 3
      vertex -56.8955 -11.6888 0
      vertex -58.293 -11.2347 0
    endloop
  endfacet
  facet normal -0.809017 -0.587785 0
    outer loop
      vertex -56.0317 10.5 0
      vertex -56.8955 11.6888 3
      vertex -56.8955 11.6888 0
    endloop
  endfacet
  facet normal -0.809017 -0.587785 0
    outer loop
      vertex -56.8955 11.6888 3
      vertex -56.0317 10.5 0
      vertex -56.0317 10.5 3
    endloop
  endfacet
  facet normal 1 -0 0
    outer loop
      vertex -58.293 9.76527 3
      vertex -58.293 11.2347 0
      vertex -58.293 11.2347 3
    endloop
  endfacet
  facet normal 1 0 0
    outer loop
      vertex -58.293 11.2347 0
      vertex -58.293 9.76527 3
      vertex -58.293 9.76527 0
    endloop
  endfacet
  facet normal 0.309017 -0.951056 0
    outer loop
      vertex -58.293 11.2347 0
      vertex -56.8955 11.6888 3
      vertex -58.293 11.2347 3
    endloop
  endfacet
  facet normal 0.309017 -0.951056 0
    outer loop
      vertex -56.8955 11.6888 3
      vertex -58.293 11.2347 0
      vertex -56.8955 11.6888 0
    endloop
  endfacet
  facet normal 0.309017 0.951056 -0
    outer loop
      vertex -56.8955 9.31118 0
      vertex -58.293 9.76527 3
      vertex -56.8955 9.31118 3
    endloop
  endfacet
  facet normal 0.309017 0.951056 0
    outer loop
      vertex -58.293 9.76527 3
      vertex -56.8955 9.31118 0
      vertex -58.293 9.76527 0
    endloop
  endfacet
  facet normal -0.809017 0.587785 0
    outer loop
      vertex -56.8955 9.31118 0
      vertex -56.0317 10.5 3
      vertex -56.0317 10.5 0
    endloop
  endfacet
  facet normal -0.809017 0.587785 0
    outer loop
      vertex -56.0317 10.5 3
      vertex -56.8955 9.31118 0
      vertex -56.8955 9.31118 3
    endloop
  endfacet
  facet normal -0.809017 -0.587785 0
    outer loop
      vertex -9.25 57.2817 0
      vertex -10.1137 58.4706 3
      vertex -10.1137 58.4706 0
    endloop
  endfacet
  facet normal -0.809017 -0.587785 0
    outer loop
      vertex -10.1137 58.4706 3
      vertex -9.25 57.2817 0
      vertex -9.25 57.2817 3
    endloop
  endfacet
  facet normal 1 -0 0
    outer loop
      vertex -11.5113 56.547 3
      vertex -11.5113 58.0165 0
      vertex -11.5113 58.0165 3
    endloop
  endfacet
  facet normal 1 0 0
    outer loop
      vertex -11.5113 58.0165 0
      vertex -11.5113 56.547 3
      vertex -11.5113 56.547 0
    endloop
  endfacet
  facet normal 0.309018 -0.951056 0
    outer loop
      vertex -11.5113 58.0165 0
      vertex -10.1137 58.4706 3
      vertex -11.5113 58.0165 3
    endloop
  endfacet
  facet normal 0.309018 -0.951056 0
    outer loop
      vertex -10.1137 58.4706 3
      vertex -11.5113 58.0165 0
      vertex -10.1137 58.4706 0
    endloop
  endfacet
  facet normal 0.309015 0.951057 -0
    outer loop
      vertex -10.1137 56.0929 0
      vertex -11.5113 56.547 3
      vertex -10.1137 56.0929 3
    endloop
  endfacet
  facet normal 0.309015 0.951057 0
    outer loop
      vertex -11.5113 56.547 3
      vertex -10.1137 56.0929 0
      vertex -11.5113 56.547 0
    endloop
  endfacet
  facet normal -0.809017 0.587785 0
    outer loop
      vertex -10.1137 56.0929 0
      vertex -9.25 57.2817 3
      vertex -9.25 57.2817 0
    endloop
  endfacet
  facet normal -0.809017 0.587785 0
    outer loop
      vertex -9.25 57.2817 3
      vertex -10.1137 56.0929 0
      vertex -10.1137 56.0929 3
    endloop
  endfacet
  facet normal -0.809017 -0.587786 0
    outer loop
      vertex 11.75 57.2817 0
      vertex 10.8863 58.4706 3
      vertex 10.8863 58.4706 0
    endloop
  endfacet
  facet normal -0.809017 -0.587786 0
    outer loop
      vertex 10.8863 58.4706 3
      vertex 11.75 57.2817 0
      vertex 11.75 57.2817 3
    endloop
  endfacet
  facet normal 1 -0 0
    outer loop
      vertex 9.48873 56.547 3
      vertex 9.48873 58.0165 0
      vertex 9.48873 58.0165 3
    endloop
  endfacet
  facet normal 1 0 0
    outer loop
      vertex 9.48873 58.0165 0
      vertex 9.48873 56.547 3
      vertex 9.48873 56.547 0
    endloop
  endfacet
  facet normal 0.309018 -0.951056 0
    outer loop
      vertex 9.48873 58.0165 0
      vertex 10.8863 58.4706 3
      vertex 9.48873 58.0165 3
    endloop
  endfacet
  facet normal 0.309018 -0.951056 0
    outer loop
      vertex 10.8863 58.4706 3
      vertex 9.48873 58.0165 0
      vertex 10.8863 58.4706 0
    endloop
  endfacet
  facet normal -0.809017 0.587786 0
    outer loop
      vertex 10.8863 56.0929 0
      vertex 11.75 57.2817 3
      vertex 11.75 57.2817 0
    endloop
  endfacet
  facet normal -0.809017 0.587786 0
    outer loop
      vertex 11.75 57.2817 3
      vertex 10.8863 56.0929 0
      vertex 10.8863 56.0929 3
    endloop
  endfacet
  facet normal 0.309015 0.951057 -0
    outer loop
      vertex 10.8863 56.0929 0
      vertex 9.48873 56.547 3
      vertex 10.8863 56.0929 3
    endloop
  endfacet
  facet normal 0.309015 0.951057 0
    outer loop
      vertex 9.48873 56.547 3
      vertex 10.8863 56.0929 0
      vertex 9.48873 56.547 0
    endloop
  endfacet
  facet normal -0.809017 -0.587785 0
    outer loop
      vertex -9.25 -57.2817 0
      vertex -10.1137 -56.0929 3
      vertex -10.1137 -56.0929 0
    endloop
  endfacet
  facet normal -0.809017 -0.587785 0
    outer loop
      vertex -10.1137 -56.0929 3
      vertex -9.25 -57.2817 0
      vertex -9.25 -57.2817 3
    endloop
  endfacet
  facet normal 1 -0 0
    outer loop
      vertex -11.5113 -58.0165 3
      vertex -11.5113 -56.547 0
      vertex -11.5113 -56.547 3
    endloop
  endfacet
  facet normal 1 0 0
    outer loop
      vertex -11.5113 -56.547 0
      vertex -11.5113 -58.0165 3
      vertex -11.5113 -58.0165 0
    endloop
  endfacet
  facet normal 0.309015 -0.951057 0
    outer loop
      vertex -11.5113 -56.547 0
      vertex -10.1137 -56.0929 3
      vertex -11.5113 -56.547 3
    endloop
  endfacet
  facet normal 0.309015 -0.951057 0
    outer loop
      vertex -10.1137 -56.0929 3
      vertex -11.5113 -56.547 0
      vertex -10.1137 -56.0929 0
    endloop
  endfacet
  facet normal -0.809017 0.587785 0
    outer loop
      vertex -10.1137 -58.4706 0
      vertex -9.25 -57.2817 3
      vertex -9.25 -57.2817 0
    endloop
  endfacet
  facet normal -0.809017 0.587785 0
    outer loop
      vertex -9.25 -57.2817 3
      vertex -10.1137 -58.4706 0
      vertex -10.1137 -58.4706 3
    endloop
  endfacet
  facet normal 0.309018 0.951056 -0
    outer loop
      vertex -10.1137 -58.4706 0
      vertex -11.5113 -58.0165 3
      vertex -10.1137 -58.4706 3
    endloop
  endfacet
  facet normal 0.309018 0.951056 0
    outer loop
      vertex -11.5113 -58.0165 3
      vertex -10.1137 -58.4706 0
      vertex -11.5113 -58.0165 0
    endloop
  endfacet
  facet normal -0.809017 -0.587786 0
    outer loop
      vertex 11.75 -57.2817 0
      vertex 10.8863 -56.0929 3
      vertex 10.8863 -56.0929 0
    endloop
  endfacet
  facet normal -0.809017 -0.587786 0
    outer loop
      vertex 10.8863 -56.0929 3
      vertex 11.75 -57.2817 0
      vertex 11.75 -57.2817 3
    endloop
  endfacet
  facet normal 1 -0 0
    outer loop
      vertex 9.48873 -58.0165 3
      vertex 9.48873 -56.547 0
      vertex 9.48873 -56.547 3
    endloop
  endfacet
  facet normal 1 0 0
    outer loop
      vertex 9.48873 -56.547 0
      vertex 9.48873 -58.0165 3
      vertex 9.48873 -58.0165 0
    endloop
  endfacet
  facet normal 0.309015 -0.951057 0
    outer loop
      vertex 9.48873 -56.547 0
      vertex 10.8863 -56.0929 3
      vertex 9.48873 -56.547 3
    endloop
  endfacet
  facet normal 0.309015 -0.951057 0
    outer loop
      vertex 10.8863 -56.0929 3
      vertex 9.48873 -56.547 0
      vertex 10.8863 -56.0929 0
    endloop
  endfacet
  facet normal 0.309018 0.951056 -0
    outer loop
      vertex 10.8863 -58.4706 0
      vertex 9.48873 -58.0165 3
      vertex 10.8863 -58.4706 3
    endloop
  endfacet
  facet normal 0.309018 0.951056 0
    outer loop
      vertex 9.48873 -58.0165 3
      vertex 10.8863 -58.4706 0
      vertex 9.48873 -58.0165 0
    endloop
  endfacet
  facet normal -0.809017 0.587786 0
    outer loop
      vertex 10.8863 -58.4706 0
      vertex 11.75 -57.2817 3
      vertex 11.75 -57.2817 0
    endloop
  endfacet
  facet normal -0.809017 0.587786 0
    outer loop
      vertex 11.75 -57.2817 3
      vertex 10.8863 -58.4706 0
      vertex 10.8863 -58.4706 3
    endloop
  endfacet
  facet normal -0.959493 -0.281733 0
    outer loop
      vertex 50.7817 0 0
      vertex 50.2261 1.89224 3
      vertex 50.2261 1.89224 0
    endloop
  endfacet
  facet normal -0.959493 -0.281733 0
    outer loop
      vertex 50.2261 1.89224 3
      vertex 50.7817 0 0
      vertex 50.7817 0 3
    endloop
  endfacet
  facet normal 1 -0 0
    outer loop
      vertex 43.9235 -0.986063 3
      vertex 43.9235 0.986063 0
      vertex 43.9235 0.986063 3
    endloop
  endfacet
  facet normal 1 0 0
    outer loop
      vertex 43.9235 0.986063 0
      vertex 43.9235 -0.986063 3
      vertex 43.9235 -0.986063 0
    endloop
  endfacet
  facet normal 0.415414 -0.909632 0
    outer loop
      vertex 44.9897 2.64512 0
      vertex 46.7836 3.46437 3
      vertex 44.9897 2.64512 3
    endloop
  endfacet
  facet normal 0.415414 -0.909632 0
    outer loop
      vertex 46.7836 3.46437 3
      vertex 44.9897 2.64512 0
      vertex 46.7836 3.46437 0
    endloop
  endfacet
  facet normal 0.841254 -0.54064 0
    outer loop
      vertex 43.9235 0.986063 3
      vertex 44.9897 2.64512 0
      vertex 44.9897 2.64512 3
    endloop
  endfacet
  facet normal 0.841254 -0.54064 0
    outer loop
      vertex 44.9897 2.64512 0
      vertex 43.9235 0.986063 3
      vertex 43.9235 0.986063 0
    endloop
  endfacet
  facet normal -0.959493 0.281733 0
    outer loop
      vertex 50.2261 -1.89224 0
      vertex 50.7817 0 3
      vertex 50.7817 0 0
    endloop
  endfacet
  facet normal -0.959493 0.281733 0
    outer loop
      vertex 50.7817 0 3
      vertex 50.2261 -1.89224 0
      vertex 50.2261 -1.89224 3
    endloop
  endfacet
  facet normal -0.142315 -0.989821 0
    outer loop
      vertex 46.7836 3.46437 0
      vertex 48.7357 3.18371 3
      vertex 46.7836 3.46437 3
    endloop
  endfacet
  facet normal -0.142315 -0.989821 -0
    outer loop
      vertex 48.7357 3.18371 3
      vertex 46.7836 3.46437 0
      vertex 48.7357 3.18371 0
    endloop
  endfacet
  facet normal -0.654861 -0.755749 0
    outer loop
      vertex 48.7357 3.18371 0
      vertex 50.2261 1.89224 3
      vertex 48.7357 3.18371 3
    endloop
  endfacet
  facet normal -0.654861 -0.755749 -0
    outer loop
      vertex 50.2261 1.89224 3
      vertex 48.7357 3.18371 0
      vertex 50.2261 1.89224 0
    endloop
  endfacet
  facet normal 0.841254 0.54064 0
    outer loop
      vertex 44.9897 -2.64512 3
      vertex 43.9235 -0.986063 0
      vertex 43.9235 -0.986063 3
    endloop
  endfacet
  facet normal 0.841254 0.54064 0
    outer loop
      vertex 43.9235 -0.986063 0
      vertex 44.9897 -2.64512 3
      vertex 44.9897 -2.64512 0
    endloop
  endfacet
  facet normal -0.654861 0.755749 0
    outer loop
      vertex 50.2261 -1.89224 0
      vertex 48.7357 -3.18371 3
      vertex 50.2261 -1.89224 3
    endloop
  endfacet
  facet normal -0.654861 0.755749 0
    outer loop
      vertex 48.7357 -3.18371 3
      vertex 50.2261 -1.89224 0
      vertex 48.7357 -3.18371 0
    endloop
  endfacet
  facet normal 0.415414 0.909632 -0
    outer loop
      vertex 46.7836 -3.46437 0
      vertex 44.9897 -2.64512 3
      vertex 46.7836 -3.46437 3
    endloop
  endfacet
  facet normal 0.415414 0.909632 0
    outer loop
      vertex 44.9897 -2.64512 3
      vertex 46.7836 -3.46437 0
      vertex 44.9897 -2.64512 0
    endloop
  endfacet
  facet normal -0.142315 0.989821 0
    outer loop
      vertex 48.7357 -3.18371 0
      vertex 46.7836 -3.46437 3
      vertex 48.7357 -3.18371 3
    endloop
  endfacet
  facet normal -0.142315 0.989821 0
    outer loop
      vertex 46.7836 -3.46437 3
      vertex 48.7357 -3.18371 0
      vertex 46.7836 -3.46437 0
    endloop
  endfacet
  facet normal -0.959493 -0.281732 0
    outer loop
      vertex -43.7817 0 0
      vertex -44.3374 1.89224 3
      vertex -44.3374 1.89224 0
    endloop
  endfacet
  facet normal -0.959493 -0.281732 0
    outer loop
      vertex -44.3374 1.89224 3
      vertex -43.7817 0 0
      vertex -43.7817 0 3
    endloop
  endfacet
  facet normal 1 -0 0
    outer loop
      vertex -50.64 -0.986063 3
      vertex -50.64 0.986063 0
      vertex -50.64 0.986063 3
    endloop
  endfacet
  facet normal 1 0 0
    outer loop
      vertex -50.64 0.986063 0
      vertex -50.64 -0.986063 3
      vertex -50.64 -0.986063 0
    endloop
  endfacet
  facet normal 0.415415 -0.909632 0
    outer loop
      vertex -49.5738 2.64512 0
      vertex -47.7798 3.46437 3
      vertex -49.5738 2.64512 3
    endloop
  endfacet
  facet normal 0.415415 -0.909632 0
    outer loop
      vertex -47.7798 3.46437 3
      vertex -49.5738 2.64512 0
      vertex -47.7798 3.46437 0
    endloop
  endfacet
  facet normal 0.841254 -0.54064 0
    outer loop
      vertex -50.64 0.986063 3
      vertex -49.5738 2.64512 0
      vertex -49.5738 2.64512 3
    endloop
  endfacet
  facet normal 0.841254 -0.54064 0
    outer loop
      vertex -49.5738 2.64512 0
      vertex -50.64 0.986063 3
      vertex -50.64 0.986063 0
    endloop
  endfacet
  facet normal -0.142315 0.989821 0
    outer loop
      vertex -45.8278 -3.18371 0
      vertex -47.7798 -3.46437 3
      vertex -45.8278 -3.18371 3
    endloop
  endfacet
  facet normal -0.142315 0.989821 0
    outer loop
      vertex -47.7798 -3.46437 3
      vertex -45.8278 -3.18371 0
      vertex -47.7798 -3.46437 0
    endloop
  endfacet
  facet normal -0.142315 -0.989821 0
    outer loop
      vertex -47.7798 3.46437 0
      vertex -45.8278 3.18371 3
      vertex -47.7798 3.46437 3
    endloop
  endfacet
  facet normal -0.142315 -0.989821 -0
    outer loop
      vertex -45.8278 3.18371 3
      vertex -47.7798 3.46437 0
      vertex -45.8278 3.18371 0
    endloop
  endfacet
  facet normal -0.65486 -0.75575 0
    outer loop
      vertex -45.8278 3.18371 0
      vertex -44.3374 1.89224 3
      vertex -45.8278 3.18371 3
    endloop
  endfacet
  facet normal -0.65486 -0.75575 -0
    outer loop
      vertex -44.3374 1.89224 3
      vertex -45.8278 3.18371 0
      vertex -44.3374 1.89224 0
    endloop
  endfacet
  facet normal -0.959493 0.281732 0
    outer loop
      vertex -44.3374 -1.89224 0
      vertex -43.7817 0 3
      vertex -43.7817 0 0
    endloop
  endfacet
  facet normal -0.959493 0.281732 0
    outer loop
      vertex -43.7817 0 3
      vertex -44.3374 -1.89224 0
      vertex -44.3374 -1.89224 3
    endloop
  endfacet
  facet normal -0.65486 0.75575 0
    outer loop
      vertex -44.3374 -1.89224 0
      vertex -45.8278 -3.18371 3
      vertex -44.3374 -1.89224 3
    endloop
  endfacet
  facet normal -0.65486 0.75575 0
    outer loop
      vertex -45.8278 -3.18371 3
      vertex -44.3374 -1.89224 0
      vertex -45.8278 -3.18371 0
    endloop
  endfacet
  facet normal 0.415415 0.909632 -0
    outer loop
      vertex -47.7798 -3.46437 0
      vertex -49.5738 -2.64512 3
      vertex -47.7798 -3.46437 3
    endloop
  endfacet
  facet normal 0.415415 0.909632 0
    outer loop
      vertex -49.5738 -2.64512 3
      vertex -47.7798 -3.46437 0
      vertex -49.5738 -2.64512 0
    endloop
  endfacet
  facet normal 0.841254 0.54064 0
    outer loop
      vertex -49.5738 -2.64512 3
      vertex -50.64 -0.986063 0
      vertex -50.64 -0.986063 3
    endloop
  endfacet
  facet normal 0.841254 0.54064 0
    outer loop
      vertex -50.64 -0.986063 0
      vertex -49.5738 -2.64512 3
      vertex -49.5738 -2.64512 0
    endloop
  endfacet
  facet normal -0.959493 -0.281733 0
    outer loop
      vertex 3.5 47.2817 0
      vertex 2.94439 49.174 3
      vertex 2.94439 49.174 0
    endloop
  endfacet
  facet normal -0.959493 -0.281733 0
    outer loop
      vertex 2.94439 49.174 3
      vertex 3.5 47.2817 0
      vertex 3.5 47.2817 3
    endloop
  endfacet
  facet normal 1 -0 0
    outer loop
      vertex -3.35822 46.2957 3
      vertex -3.35822 48.2678 0
      vertex -3.35822 48.2678 3
    endloop
  endfacet
  facet normal 1 0 0
    outer loop
      vertex -3.35822 48.2678 0
      vertex -3.35822 46.2957 3
      vertex -3.35822 46.2957 0
    endloop
  endfacet
  facet normal 0.415415 -0.909632 0
    outer loop
      vertex -2.29201 49.9269 0
      vertex -0.498101 50.7461 3
      vertex -2.29201 49.9269 3
    endloop
  endfacet
  facet normal 0.415415 -0.909632 0
    outer loop
      vertex -0.498101 50.7461 3
      vertex -2.29201 49.9269 0
      vertex -0.498101 50.7461 0
    endloop
  endfacet
  facet normal 0.841253 -0.540641 0
    outer loop
      vertex -3.35822 48.2678 3
      vertex -2.29201 49.9269 0
      vertex -2.29201 49.9269 3
    endloop
  endfacet
  facet normal 0.841253 -0.540641 0
    outer loop
      vertex -2.29201 49.9269 0
      vertex -3.35822 48.2678 3
      vertex -3.35822 48.2678 0
    endloop
  endfacet
  facet normal -0.959493 0.281733 0
    outer loop
      vertex 2.94439 45.3895 0
      vertex 3.5 47.2817 3
      vertex 3.5 47.2817 0
    endloop
  endfacet
  facet normal -0.959493 0.281733 0
    outer loop
      vertex 3.5 47.2817 3
      vertex 2.94439 45.3895 0
      vertex 2.94439 45.3895 3
    endloop
  endfacet
  facet normal -0.142315 -0.989821 0
    outer loop
      vertex -0.498101 50.7461 0
      vertex 1.45395 50.4655 3
      vertex -0.498101 50.7461 3
    endloop
  endfacet
  facet normal -0.142315 -0.989821 -0
    outer loop
      vertex 1.45395 50.4655 3
      vertex -0.498101 50.7461 0
      vertex 1.45395 50.4655 0
    endloop
  endfacet
  facet normal -0.654861 -0.755749 0
    outer loop
      vertex 1.45395 50.4655 0
      vertex 2.94439 49.174 3
      vertex 1.45395 50.4655 3
    endloop
  endfacet
  facet normal -0.654861 -0.755749 -0
    outer loop
      vertex 2.94439 49.174 3
      vertex 1.45395 50.4655 0
      vertex 2.94439 49.174 0
    endloop
  endfacet
  facet normal 0.841254 0.54064 0
    outer loop
      vertex -2.29201 44.6366 3
      vertex -3.35822 46.2957 0
      vertex -3.35822 46.2957 3
    endloop
  endfacet
  facet normal 0.841254 0.54064 0
    outer loop
      vertex -3.35822 46.2957 0
      vertex -2.29201 44.6366 3
      vertex -2.29201 44.6366 0
    endloop
  endfacet
  facet normal -0.654861 0.755749 0
    outer loop
      vertex 2.94439 45.3895 0
      vertex 1.45395 44.098 3
      vertex 2.94439 45.3895 3
    endloop
  endfacet
  facet normal -0.654861 0.755749 0
    outer loop
      vertex 1.45395 44.098 3
      vertex 2.94439 45.3895 0
      vertex 1.45395 44.098 0
    endloop
  endfacet
  facet normal 0.415414 0.909633 -0
    outer loop
      vertex -0.498101 43.8174 0
      vertex -2.29201 44.6366 3
      vertex -0.498101 43.8174 3
    endloop
  endfacet
  facet normal 0.415414 0.909633 0
    outer loop
      vertex -2.29201 44.6366 3
      vertex -0.498101 43.8174 0
      vertex -2.29201 44.6366 0
    endloop
  endfacet
  facet normal -0.142315 0.989821 0
    outer loop
      vertex 1.45395 44.098 0
      vertex -0.498101 43.8174 3
      vertex 1.45395 44.098 3
    endloop
  endfacet
  facet normal -0.142315 0.989821 0
    outer loop
      vertex -0.498101 43.8174 3
      vertex 1.45395 44.098 0
      vertex -0.498101 43.8174 0
    endloop
  endfacet
  facet normal -0.959493 -0.281733 0
    outer loop
      vertex 3.5 -47.2817 0
      vertex 2.94439 -45.3895 3
      vertex 2.94439 -45.3895 0
    endloop
  endfacet
  facet normal -0.959493 -0.281733 0
    outer loop
      vertex 2.94439 -45.3895 3
      vertex 3.5 -47.2817 0
      vertex 3.5 -47.2817 3
    endloop
  endfacet
  facet normal 1 -0 0
    outer loop
      vertex -3.35822 -48.2678 3
      vertex -3.35822 -46.2957 0
      vertex -3.35822 -46.2957 3
    endloop
  endfacet
  facet normal 1 0 0
    outer loop
      vertex -3.35822 -46.2957 0
      vertex -3.35822 -48.2678 3
      vertex -3.35822 -48.2678 0
    endloop
  endfacet
  facet normal 0.415414 -0.909633 0
    outer loop
      vertex -2.29201 -44.6366 0
      vertex -0.498101 -43.8174 3
      vertex -2.29201 -44.6366 3
    endloop
  endfacet
  facet normal 0.415414 -0.909633 0
    outer loop
      vertex -0.498101 -43.8174 3
      vertex -2.29201 -44.6366 0
      vertex -0.498101 -43.8174 0
    endloop
  endfacet
  facet normal 0.841254 -0.54064 0
    outer loop
      vertex -3.35822 -46.2957 3
      vertex -2.29201 -44.6366 0
      vertex -2.29201 -44.6366 3
    endloop
  endfacet
  facet normal 0.841254 -0.54064 0
    outer loop
      vertex -2.29201 -44.6366 0
      vertex -3.35822 -46.2957 3
      vertex -3.35822 -46.2957 0
    endloop
  endfacet
  facet normal -0.959493 0.281733 0
    outer loop
      vertex 2.94439 -49.174 0
      vertex 3.5 -47.2817 3
      vertex 3.5 -47.2817 0
    endloop
  endfacet
  facet normal -0.959493 0.281733 0
    outer loop
      vertex 3.5 -47.2817 3
      vertex 2.94439 -49.174 0
      vertex 2.94439 -49.174 3
    endloop
  endfacet
  facet normal -0.142315 -0.989821 0
    outer loop
      vertex -0.498101 -43.8174 0
      vertex 1.45395 -44.098 3
      vertex -0.498101 -43.8174 3
    endloop
  endfacet
  facet normal -0.142315 -0.989821 -0
    outer loop
      vertex 1.45395 -44.098 3
      vertex -0.498101 -43.8174 0
      vertex 1.45395 -44.098 0
    endloop
  endfacet
  facet normal -0.654861 -0.755749 0
    outer loop
      vertex 1.45395 -44.098 0
      vertex 2.94439 -45.3895 3
      vertex 1.45395 -44.098 3
    endloop
  endfacet
  facet normal -0.654861 -0.755749 -0
    outer loop
      vertex 2.94439 -45.3895 3
      vertex 1.45395 -44.098 0
      vertex 2.94439 -45.3895 0
    endloop
  endfacet
  facet normal 0.841253 0.540641 0
    outer loop
      vertex -2.29201 -49.9269 3
      vertex -3.35822 -48.2678 0
      vertex -3.35822 -48.2678 3
    endloop
  endfacet
  facet normal 0.841253 0.540641 0
    outer loop
      vertex -3.35822 -48.2678 0
      vertex -2.29201 -49.9269 3
      vertex -2.29201 -49.9269 0
    endloop
  endfacet
  facet normal -0.654861 0.755749 0
    outer loop
      vertex 2.94439 -49.174 0
      vertex 1.45395 -50.4655 3
      vertex 2.94439 -49.174 3
    endloop
  endfacet
  facet normal -0.654861 0.755749 0
    outer loop
      vertex 1.45395 -50.4655 3
      vertex 2.94439 -49.174 0
      vertex 1.45395 -50.4655 0
    endloop
  endfacet
  facet normal -0.142315 0.989821 0
    outer loop
      vertex 1.45395 -50.4655 0
      vertex -0.498101 -50.7461 3
      vertex 1.45395 -50.4655 3
    endloop
  endfacet
  facet normal -0.142315 0.989821 0
    outer loop
      vertex -0.498101 -50.7461 3
      vertex 1.45395 -50.4655 0
      vertex -0.498101 -50.7461 0
    endloop
  endfacet
  facet normal 0.415415 0.909632 -0
    outer loop
      vertex -0.498101 -50.7461 0
      vertex -2.29201 -49.9269 3
      vertex -0.498101 -50.7461 3
    endloop
  endfacet
  facet normal 0.415415 0.909632 0
    outer loop
      vertex -2.29201 -49.9269 3
      vertex -0.498101 -50.7461 0
      vertex -2.29201 -49.9269 0
    endloop
  endfacet
  facet normal -0.707107 -0.707107 0
    outer loop
      vertex 26.5165 8.83883 0
      vertex 8.83883 26.5165 3
      vertex 8.83883 26.5165 0
    endloop
  endfacet
  facet normal -0.707107 -0.707107 0
    outer loop
      vertex 8.83883 26.5165 3
      vertex 26.5165 8.83883 0
      vertex 26.5165 8.83883 3
    endloop
  endfacet
  facet normal 0.707107 -0.707107 0
    outer loop
      vertex 5.3033 22.981 3
      vertex 8.83883 26.5165 0
      vertex 8.83883 26.5165 3
    endloop
  endfacet
  facet normal 0.707107 -0.707107 0
    outer loop
      vertex 8.83883 26.5165 0
      vertex 5.3033 22.981 3
      vertex 5.3033 22.981 0
    endloop
  endfacet
  facet normal 0.707107 0.707107 0
    outer loop
      vertex 22.981 5.3033 3
      vertex 5.3033 22.981 0
      vertex 5.3033 22.981 3
    endloop
  endfacet
  facet normal 0.707107 0.707107 0
    outer loop
      vertex 5.3033 22.981 0
      vertex 22.981 5.3033 3
      vertex 22.981 5.3033 0
    endloop
  endfacet
  facet normal -0.707107 0.707107 0
    outer loop
      vertex 22.981 5.3033 0
      vertex 26.5165 8.83883 3
      vertex 26.5165 8.83883 0
    endloop
  endfacet
  facet normal -0.707107 0.707107 0
    outer loop
      vertex 26.5165 8.83883 3
      vertex 22.981 5.3033 0
      vertex 22.981 5.3033 3
    endloop
  endfacet
  facet normal -0.707107 -0.707107 0
    outer loop
      vertex -5.3033 -22.981 0
      vertex -22.981 -5.3033 3
      vertex -22.981 -5.3033 0
    endloop
  endfacet
  facet normal -0.707107 -0.707107 0
    outer loop
      vertex -22.981 -5.3033 3
      vertex -5.3033 -22.981 0
      vertex -5.3033 -22.981 3
    endloop
  endfacet
  facet normal 0.707107 -0.707107 0
    outer loop
      vertex -26.5165 -8.83883 3
      vertex -22.981 -5.3033 0
      vertex -22.981 -5.3033 3
    endloop
  endfacet
  facet normal 0.707107 -0.707107 0
    outer loop
      vertex -22.981 -5.3033 0
      vertex -26.5165 -8.83883 3
      vertex -26.5165 -8.83883 0
    endloop
  endfacet
  facet normal 0.707107 0.707107 0
    outer loop
      vertex -8.83883 -26.5165 3
      vertex -26.5165 -8.83883 0
      vertex -26.5165 -8.83883 3
    endloop
  endfacet
  facet normal 0.707107 0.707107 0
    outer loop
      vertex -26.5165 -8.83883 0
      vertex -8.83883 -26.5165 3
      vertex -8.83883 -26.5165 0
    endloop
  endfacet
  facet normal -0.707107 0.707107 0
    outer loop
      vertex -8.83883 -26.5165 0
      vertex -5.3033 -22.981 3
      vertex -5.3033 -22.981 0
    endloop
  endfacet
  facet normal -0.707107 0.707107 0
    outer loop
      vertex -5.3033 -22.981 3
      vertex -8.83883 -26.5165 0
      vertex -8.83883 -26.5165 3
    endloop
  endfacet
  facet normal 0.707107 0.707107 0
    outer loop
      vertex 62.7817 15 3
      vertex 15 62.7817 0
      vertex 15 62.7817 3
    endloop
  endfacet
  facet normal 0.707107 0.707107 0
    outer loop
      vertex 15 62.7817 0
      vertex 62.7817 15 3
      vertex 62.7817 15 0
    endloop
  endfacet
  facet normal -0.707107 0.707107 0
    outer loop
      vertex -24.7487 53.033 0
      vertex -15 62.7817 3
      vertex -15 62.7817 0
    endloop
  endfacet
  facet normal -0.707107 0.707107 0
    outer loop
      vertex -15 62.7817 3
      vertex -24.7487 53.033 0
      vertex -24.7487 53.033 3
    endloop
  endfacet
  facet normal -0.707107 0.707107 0
    outer loop
      vertex -62.7817 15 0
      vertex -53.033 24.7487 3
      vertex -53.033 24.7487 0
    endloop
  endfacet
  facet normal -0.707107 0.707107 0
    outer loop
      vertex -53.033 24.7487 3
      vertex -62.7817 15 0
      vertex -62.7817 15 3
    endloop
  endfacet
  facet normal -0.707107 -0.707107 0
    outer loop
      vertex -15 -62.7817 0
      vertex -62.7817 -15 3
      vertex -62.7817 -15 0
    endloop
  endfacet
  facet normal -0.707107 -0.707107 0
    outer loop
      vertex -62.7817 -15 3
      vertex -15 -62.7817 0
      vertex -15 -62.7817 3
    endloop
  endfacet
  facet normal 0.707107 -0.707107 0
    outer loop
      vertex 24.7487 -53.033 3
      vertex 15 -62.7817 3
      vertex 24.7487 -53.033 1.15172
    endloop
  endfacet
  facet normal 0.707107 -0.707107 0
    outer loop
      vertex 53.033 -24.7487 1.15172
      vertex 62.7817 -15 3
      vertex 53.033 -24.7487 3
    endloop
  endfacet
  facet normal 0.707107 -0.707107 0
    outer loop
      vertex 62.7817 -15 3
      vertex 53.033 -24.7487 1.15172
      vertex 62.7817 -15 0
    endloop
  endfacet
  facet normal 0.707107 -0.707107 0
    outer loop
      vertex 24.7487 -53.033 1.15172
      vertex 62.7817 -15 0
      vertex 53.033 -24.7487 1.15172
    endloop
  endfacet
  facet normal 0.707107 -0.707107 0
    outer loop
      vertex 24.7487 -53.033 1.15172
      vertex 15 -62.7817 0
      vertex 62.7817 -15 0
    endloop
  endfacet
  facet normal 0.707107 -0.707107 0
    outer loop
      vertex 15 -62.7817 0
      vertex 24.7487 -53.033 1.15172
      vertex 15 -62.7817 3
    endloop
  endfacet
  facet normal 1 -0 0
    outer loop
      vertex 62.7817 -15 3
      vertex 62.7817 15 0
      vertex 62.7817 15 3
    endloop
  endfacet
  facet normal 1 0 0
    outer loop
      vertex 62.7817 15 0
      vertex 62.7817 -15 3
      vertex 62.7817 -15 0
    endloop
  endfacet
  facet normal -1 0 0
    outer loop
      vertex -62.7817 -15 0
      vertex -62.7817 15 3
      vertex -62.7817 15 0
    endloop
  endfacet
  facet normal -1 -0 0
    outer loop
      vertex -62.7817 15 3
      vertex -62.7817 -15 0
      vertex -62.7817 -15 3
    endloop
  endfacet
  facet normal 0 -1 0
    outer loop
      vertex -15 -62.7817 0
      vertex 15 -62.7817 3
      vertex -15 -62.7817 3
    endloop
  endfacet
  facet normal 0 -1 -0
    outer loop
      vertex 15 -62.7817 3
      vertex -15 -62.7817 0
      vertex 15 -62.7817 0
    endloop
  endfacet
  facet normal 0 1 -0
    outer loop
      vertex 15 62.7817 0
      vertex -15 62.7817 3
      vertex 15 62.7817 3
    endloop
  endfacet
  facet normal 0 1 0
    outer loop
      vertex -15 62.7817 3
      vertex 15 62.7817 0
      vertex -15 62.7817 0
    endloop
  endfacet
  facet normal -0.707107 0.707107 0
    outer loop
      vertex 23.4746 -51.7588 3
      vertex 51.7588 -23.4746 3.19693
      vertex 51.7588 -23.4746 3
    endloop
  endfacet
  facet normal -0.707107 0.707107 0
    outer loop
      vertex 51.7588 -23.4746 3.19693
      vertex 23.4746 -51.7588 3
      vertex 23.4746 -51.7588 3.19693
    endloop
  endfacet
  facet normal -0.141094 -0.429077 0.89218
    outer loop
      vertex 52.9865 -24.7022 4.8633
      vertex 53.033 -24.7487 4.84828
      vertex 53.9148 -25.6305 4.56366
    endloop
  endfacet
  facet normal 0.157353 -0.157353 0.974926
    outer loop
      vertex 52.9865 -24.7022 4.8633
      vertex 24.7487 -53.033 4.84828
      vertex 53.033 -24.7487 4.84828
    endloop
  endfacet
  facet normal 0.157353 -0.157353 0.974926
    outer loop
      vertex 24.7487 -53.033 4.84828
      vertex 52.9865 -24.7022 4.8633
      vertex 24.7022 -52.9865 4.8633
    endloop
  endfacet
  facet normal -0.707106 -0.707108 0
    outer loop
      vertex 23.4746 -51.7588 3
      vertex 24.2163 -52.5005 3.43634
      vertex 23.4746 -51.7588 3.19693
    endloop
  endfacet
  facet normal -0.707107 -0.707107 3.09096e-06
    outer loop
      vertex 24.7487 -53.033 3
      vertex 24.2163 -52.5005 3.43634
      vertex 23.4746 -51.7588 3
    endloop
  endfacet
  facet normal -0.707108 -0.707106 -0
    outer loop
      vertex 24.7487 -53.033 4.84828
      vertex 24.2163 -52.5005 3.43634
      vertex 24.7487 -53.033 3
    endloop
  endfacet
  facet normal -0.707094 -0.70712 -1.05925e-05
    outer loop
      vertex 24.2163 -52.5005 3.43634
      vertex 24.7487 -53.033 4.84828
      vertex 24.7022 -52.9865 4.8633
    endloop
  endfacet
  facet normal 0 0 0
    outer loop
      vertex 24.7487 -53.033 4.84828
      vertex 24.7487 -53.033 3
      vertex 24.7487 -53.033 1.15172
    endloop
  endfacet
  facet normal 0.707106 0.707107 3.2475e-07
    outer loop
      vertex 53.9148 -25.6305 1.43634
      vertex 53.033 -24.7487 3
      vertex 54.4472 -26.163 3
    endloop
  endfacet
  facet normal 0.707106 0.707108 0
    outer loop
      vertex 53.033 -24.7487 3
      vertex 53.9148 -25.6305 1.43634
      vertex 53.033 -24.7487 1.15172
    endloop
  endfacet
  facet normal 0.707107 0.707107 -1.7031e-06
    outer loop
      vertex 53.9148 -25.6305 4.56366
      vertex 52.5005 -24.2163 3.43634
      vertex 52.9865 -24.7022 4.8633
    endloop
  endfacet
  facet normal 0.707106 0.707107 -3.2475e-07
    outer loop
      vertex 53.033 -24.7487 3
      vertex 53.9148 -25.6305 4.56366
      vertex 54.4472 -26.163 3
    endloop
  endfacet
  facet normal 0.707106 0.707108 3.86973e-07
    outer loop
      vertex 53.9148 -25.6305 4.56366
      vertex 53.033 -24.7487 3
      vertex 52.5005 -24.2163 3.43634
    endloop
  endfacet
  facet normal 0.707107 0.707107 3.09096e-06
    outer loop
      vertex 51.7588 -23.4746 3
      vertex 52.5005 -24.2163 3.43634
      vertex 53.033 -24.7487 3
    endloop
  endfacet
  facet normal 0.707108 0.707106 0
    outer loop
      vertex 52.5005 -24.2163 3.43634
      vertex 51.7588 -23.4746 3
      vertex 51.7588 -23.4746 3.19693
    endloop
  endfacet
  facet normal -0.637081 0.637081 0.433884
    outer loop
      vertex 24.2163 -52.5005 3.43634
      vertex 52.9865 -24.7022 4.8633
      vertex 52.5005 -24.2163 3.43634
    endloop
  endfacet
  facet normal -0.637081 0.637081 0.433884
    outer loop
      vertex 52.9865 -24.7022 4.8633
      vertex 24.2163 -52.5005 3.43634
      vertex 24.7022 -52.9865 4.8633
    endloop
  endfacet
  facet normal -0.157346 0.157346 0.974928
    outer loop
      vertex 51.7588 -23.4746 3.19693
      vertex 24.2163 -52.5005 3.43634
      vertex 52.5005 -24.2163 3.43634
    endloop
  endfacet
  facet normal -0.157346 0.157346 0.974928
    outer loop
      vertex 24.2163 -52.5005 3.43634
      vertex 51.7588 -23.4746 3.19693
      vertex 23.4746 -51.7588 3.19693
    endloop
  endfacet
  facet normal -0.707107 0.707107 0
    outer loop
      vertex 24.7487 -53.033 4.84828
      vertex 53.033 -24.7487 10
      vertex 53.033 -24.7487 4.84828
    endloop
  endfacet
  facet normal -0.707107 0.707107 0
    outer loop
      vertex 53.033 -24.7487 10
      vertex 24.7487 -53.033 4.84828
      vertex 24.7487 -53.033 10
    endloop
  endfacet
  facet normal -0.707107 0.707107 0
    outer loop
      vertex 24.7487 -53.033 0
      vertex 53.033 -24.7487 1.15172
      vertex 53.033 -24.7487 0
    endloop
  endfacet
  facet normal -0.707107 0.707107 0
    outer loop
      vertex 53.033 -24.7487 1.15172
      vertex 24.7487 -53.033 0
      vertex 24.7487 -53.033 1.15172
    endloop
  endfacet
  facet normal 0 0 0
    outer loop
      vertex 24.7487 -53.033 0
      vertex 24.7487 -53.033 10
      vertex 24.7487 -53.033 4.84828
    endloop
  endfacet
  facet normal 0 0 0
    outer loop
      vertex 24.7487 -53.033 1.15172
      vertex 24.7487 -53.033 0
      vertex 24.7487 -53.033 4.84828
    endloop
  endfacet
  facet normal 0 0 1
    outer loop
      vertex 53.033 -24.7487 10
      vertex 26.163 -54.4472 10
      vertex 54.4472 -26.163 10
    endloop
  endfacet
  facet normal 0 -0 1
    outer loop
      vertex 26.163 -54.4472 10
      vertex 53.033 -24.7487 10
      vertex 24.7487 -53.033 10
    endloop
  endfacet
  facet normal 0.707107 -0.707107 0
    outer loop
      vertex 26.163 -54.4472 10
      vertex 54.4472 -26.163 3
      vertex 54.4472 -26.163 10
    endloop
  endfacet
  facet normal 0.707107 -0.707107 0
    outer loop
      vertex 26.163 -54.4472 0
      vertex 54.4472 -26.163 3
      vertex 26.163 -54.4472 10
    endloop
  endfacet
  facet normal 0.707107 -0.707107 0
    outer loop
      vertex 54.4472 -26.163 3
      vertex 26.163 -54.4472 0
      vertex 54.4472 -26.163 0
    endloop
  endfacet
  facet normal 0 0 -1
    outer loop
      vertex 26.163 -54.4472 0
      vertex 53.033 -24.7487 0
      vertex 54.4472 -26.163 0
    endloop
  endfacet
  facet normal 0 0 -1
    outer loop
      vertex 53.033 -24.7487 0
      vertex 26.163 -54.4472 0
      vertex 24.7487 -53.033 0
    endloop
  endfacet
  facet normal -0.707107 -0.707106 0
    outer loop
      vertex 26.163 -54.4472 0
      vertex 24.7487 -53.033 10
      vertex 24.7487 -53.033 0
    endloop
  endfacet
  facet normal -0.707107 -0.707106 0
    outer loop
      vertex 24.7487 -53.033 10
      vertex 26.163 -54.4472 0
      vertex 26.163 -54.4472 10
    endloop
  endfacet
  facet normal 0.707106 0.707107 0
    outer loop
      vertex 54.4472 -26.163 10
      vertex 53.033 -24.7487 4.84828
      vertex 53.033 -24.7487 10
    endloop
  endfacet
  facet normal 0.707106 0.707108 1.45224e-07
    outer loop
      vertex 54.4472 -26.163 10
      vertex 53.9148 -25.6305 4.56366
      vertex 53.033 -24.7487 4.84828
    endloop
  endfacet
  facet normal 0.707107 0.707107 0
    outer loop
      vertex 53.9148 -25.6305 4.56366
      vertex 54.4472 -26.163 10
      vertex 54.4472 -26.163 3
    endloop
  endfacet
  facet normal 0.707107 0.707107 -0
    outer loop
      vertex 54.4472 -26.163 0
      vertex 53.9148 -25.6305 1.43634
      vertex 54.4472 -26.163 3
    endloop
  endfacet
  facet normal 0.707106 0.707107 -3.53538e-07
    outer loop
      vertex 53.033 -24.7487 0
      vertex 53.9148 -25.6305 1.43634
      vertex 54.4472 -26.163 0
    endloop
  endfacet
  facet normal 0.707106 0.707108 0
    outer loop
      vertex 53.9148 -25.6305 1.43634
      vertex 53.033 -24.7487 0
      vertex 53.033 -24.7487 1.15172
    endloop
  endfacet
  facet normal -0.707107 0.707107 0
    outer loop
      vertex -78.4889 50.2046 0
      vertex -50.2046 78.4889 3
      vertex -50.2046 78.4889 0
    endloop
  endfacet
  facet normal -0.707107 0.707107 0
    outer loop
      vertex -50.2046 78.4889 3
      vertex -78.4889 50.2046 0
      vertex -78.4889 50.2046 3
    endloop
  endfacet
  facet normal 0.707107 0.707107 0
    outer loop
      vertex -24.7487 53.033 3
      vertex -50.2046 78.4889 0
      vertex -50.2046 78.4889 3
    endloop
  endfacet
  facet normal 0.707107 0.707107 0
    outer loop
      vertex -50.2046 78.4889 0
      vertex -24.7487 53.033 3
      vertex -24.7487 53.033 0
    endloop
  endfacet
  facet normal -0.707107 -0.707107 0
    outer loop
      vertex -53.033 24.7487 0
      vertex -78.4889 50.2046 3
      vertex -78.4889 50.2046 0
    endloop
  endfacet
  facet normal -0.707107 -0.707107 0
    outer loop
      vertex -78.4889 50.2046 3
      vertex -53.033 24.7487 0
      vertex -53.033 24.7487 3
    endloop
  endfacet
endsolid OpenSCAD_Model
