solid OpenSCAD_Model
  facet normal -0 0 1
    outer loop
      vertex 0 26.4 26.4
      vertex 25.3 0 26.4
      vertex 25.3 26.4 26.4
    endloop
  endfacet
  facet normal 0 0 1
    outer loop
      vertex 25.3 0 26.4
      vertex 0 26.4 26.4
      vertex 0 0 26.4
    endloop
  endfacet
  facet normal 0 0 -1
    outer loop
      vertex 0 0 0
      vertex 25.3 26.4 0
      vertex 25.3 0 0
    endloop
  endfacet
  facet normal -0 0 -1
    outer loop
      vertex 25.3 26.4 0
      vertex 0 0 0
      vertex 0 26.4 0
    endloop
  endfacet
  facet normal 0 -1 0
    outer loop
      vertex 0 0 0
      vertex 25.3 0 26.4
      vertex 0 0 26.4
    endloop
  endfacet
  facet normal 0 -1 -0
    outer loop
      vertex 25.3 0 26.4
      vertex 0 0 0
      vertex 25.3 0 0
    endloop
  endfacet
  facet normal 1 -0 0
    outer loop
      vertex 25.3 0 26.4
      vertex 25.3 26.4 0
      vertex 25.3 26.4 26.4
    endloop
  endfacet
  facet normal 1 0 0
    outer loop
      vertex 25.3 26.4 0
      vertex 25.3 0 26.4
      vertex 25.3 0 0
    endloop
  endfacet
  facet normal 0 1 -0
    outer loop
      vertex 25.3 26.4 0
      vertex 0 26.4 26.4
      vertex 25.3 26.4 26.4
    endloop
  endfacet
  facet normal 0 1 0
    outer loop
      vertex 0 26.4 26.4
      vertex 25.3 26.4 0
      vertex 0 26.4 0
    endloop
  endfacet
  facet normal -1 0 0
    outer loop
      vertex 0 0 0
      vertex 0 26.4 26.4
      vertex 0 26.4 0
    endloop
  endfacet
  facet normal -1 -0 0
    outer loop
      vertex 0 26.4 26.4
      vertex 0 0 0
      vertex 0 0 26.4
    endloop
  endfacet
endsolid OpenSCAD_Model
